<?xml version="1.0" standalone="no"?><!DOCTYPE svg PUBLIC "-//W3C//DTD SVG 1.1//EN" "http://www.w3.org/Graphics/SVG/1.1/DTD/svg11.dtd"><svg t="1748623884419" class="icon" viewBox="0 0 1024 1024" version="1.1" xmlns="http://www.w3.org/2000/svg" p-id="2468" xmlns:xlink="http://www.w3.org/1999/xlink" width="256" height="256"><path d="M888 789H136c-39.76 0-72-32.24-72-72V307c0-39.76 32.24-72 72-72h752c39.76 0 72 32.24 72 72v410c0 39.76-32.24 72-72 72z" fill="#F7F9FB" p-id="2469"></path><path d="M512 512m-168.5 0a168.5 168.5 0 1 0 337 0 168.5 168.5 0 1 0-337 0Z" fill="#FF8E00" p-id="2470"></path><path d="M587.64 530.98c-3.53-6.03-8.85-10.15-14.79-13.58-0.52-0.3-1.24-0.43-1.41-1.27 0.97-0.94 2.24-1.4 3.44-1.96 5.29-2.48 9.59-6.09 12.74-11.04 4.47-7.04 6.02-14.8 5.16-22.98-0.86-8.22-4.25-15.27-10.93-20.46-6.76-5.25-14.34-9.02-22.21-12.26-2.16-0.89-4.37-1.64-6.62-2.48 2.15-10.5 4.26-20.83 6.41-31.35-6.73-1.38-13.16-2.69-19.81-4.05-2.11 10.19-4.17 20.16-6.26 30.26-4.85-1-9.45-1.94-14.21-2.92 2.06-10.08 4.09-20 6.18-30.22a496.16 496.16 0 0 0-19.81-4.07c-2.18 10.49-4.29 20.7-6.46 31.14-12.81-2.63-25.33-5.19-38.07-7.81-1.45 7.09-2.85 13.92-4.26 20.79 1.03 0.25 1.7 0.43 2.38 0.58 4.29 0.97 8.66 1.54 12.86 2.89 5.53 1.78 7.64 4.86 7.15 10.62-0.42 4.88-1.79 9.59-2.71 14.37-1.03 5.31-2.2 10.6-3.28 15.9-1.58 7.72-3.13 15.45-4.71 23.17-1.43 6.99-2.86 13.97-4.35 20.95-0.81 3.77-1.32 7.62-2.56 11.29-1.15 3.41-3.11 4.64-6.7 4.5-3.73-0.14-7.28-1.31-10.95-1.8-1.41-0.19-2.76-0.88-4.26-0.56-2.92 7.14-5.88 14.19-8.55 21.6 12.87 2.66 25.57 5.29 38.32 7.92-2.24 10.93-4.41 21.5-6.6 32.16 6.78 1.39 13.17 2.7 19.81 4.07 2.15-10.39 4.26-20.6 6.42-30.99 4.79 0.98 9.43 1.94 14.23 2.93-2.13 10.34-4.21 20.46-6.37 31 6.67 1.37 13.17 2.71 19.82 4.07 2.21-10.64 4.35-20.95 6.49-31.32 4.26 0.25 8.29 0.29 12.28 0.75 7.31 0.84 14.59 0.74 21.82-0.5 13.38-2.3 23.16-9.48 28.92-21.9 2.52-5.45 4.01-11.18 4.97-17.09 1.11-7.2 0.18-14.02-3.52-20.35z m-36.27 18.53c-1.36 6.92-5.6 11.24-12.31 13.06-7.46 2.03-15.03 2.09-22.67 1.12-7.04-0.9-13.94-2.45-20.86-3.91-0.37-0.08-0.75-0.11-1.2-0.64 2.81-13.64 5.63-27.33 8.47-41.13 2.65 0.03 5.13 0.73 7.63 1.19 6.06 1.13 12.12 2.31 17.99 4.25 6.51 2.16 12.78 4.83 17.86 9.63 4.75 4.49 6.34 10.05 5.09 16.43z m-8.32-48.7c-6.11 1.64-12.32 1.46-18.54 0.67-5.38-0.68-10.68-1.78-15.96-2.98-0.53-0.12-1.03-0.26-1.63-0.68 2.54-12.34 5.09-24.71 7.71-37.41 3.34 0.57 6.51 1.08 9.66 1.66 6.94 1.27 13.67 3.2 19.91 6.62 3.73 2.05 7.05 4.54 9.14 8.37 4.6 8.42 1.07 20.71-10.29 23.75z" fill="#FFFFFF" p-id="2471"></path></svg>