<?xml version="1.0" standalone="no"?><!DOCTYPE svg PUBLIC "-//W3C//DTD SVG 1.1//EN" "http://www.w3.org/Graphics/SVG/1.1/DTD/svg11.dtd"><svg t="1748623853891" class="icon" viewBox="0 0 1024 1024" version="1.1" xmlns="http://www.w3.org/2000/svg" p-id="1638" xmlns:xlink="http://www.w3.org/1999/xlink" width="256" height="256"><path d="M888 789H136c-39.76 0-72-32.24-72-72V307c0-39.76 32.24-72 72-72h752c39.76 0 72 32.24 72 72v410c0 39.76-32.24 72-72 72z" fill="#F7F9FB" p-id="1639"></path><path d="M614 535.5l-102 144v-83zM512 574.5l102-60-102-170z" fill="#313131" p-id="1640"></path><path d="M512 574.5l102-60-102-47.6z" fill="#141414" p-id="1641"></path><path d="M410 535.5l102 144v-83zM512 574.5l-102-60 102-170z" fill="#8D8D8D" p-id="1642"></path><path d="M512 574.5l-102-60 102-47.6z" fill="#393939" p-id="1643"></path></svg>