<svg width="1024" height="1024" xmlns="http://www.w3.org/2000/svg" p-id="1047" version="1.1" class="icon" t="1748770308161">

 <g>
  <title>Layer 1</title>
  <path stroke-width="10" id="svg_1" p-id="1048" fill="#F7F9FB" d="m888,788l-752,0c-39.76,0 -72,-32.24 -72,-72l0,-410c0,-39.76 32.24,-72 72,-72l752,0c39.76,0 72,32.24 72,72l0,410c0,39.76 -32.24,72 -72,72z"/>
  <g stroke="null">
   <path stroke="null" p-id="7244" fill="#0055D1" d="m513.50001,511.50001m-230.50001,0a230.50001,226.50001 0 1 0 461.00003,0a230.50001,226.50001 0 1 0 -461.00003,0z"/>
   <path stroke="null" p-id="7245" fill="#FFFFFF" d="m578.32814,598.7497l6.53084,29.20906c0.38417,1.46281 0.19208,2.83125 -0.57625,4.1525c-0.76833,1.27406 -1.82479,2.17063 -3.16938,2.6425l-0.9124,0.18875c-0.48021,0.23594 -1.1525,0.47188 -1.96885,0.66062c-0.81636,0.18875 -1.82479,0.47188 -2.97729,0.80219c-1.20052,0.3775 -2.49708,0.70781 -4.03375,0.99094c-1.48864,0.33031 -3.07333,0.61343 -4.75406,0.89656s-3.55354,0.61344 -5.61844,0.89656c-2.06489,0.33031 -4.12979,0.56625 -6.24271,0.80219a122.36669,120.24319 0 0 1 -14.02209,0.755c-29.14865,0 -54.64771,-7.97469 -76.44917,-23.97125c-21.80146,-15.99656 -36.6399,-37.51406 -44.4673,-64.5525l-17.76771,0c-1.63271,0 -3.02531,-0.56625 -4.22584,-1.74593s-1.77677,-2.54813 -1.77677,-4.1525l0,-20.7625c0,-1.60438 0.57625,-2.97281 1.77677,-4.1525s2.59313,-1.74594 4.22584,-1.74594l12.34135,0c-0.2401,-6.98375 -0.19208,-13.40125 0.19208,-19.29969l-12.53344,0c-1.72875,0 -3.16938,-0.56625 -4.32188,-1.65157c-1.10448,-1.08531 -1.68073,-2.50094 -1.68073,-4.24688l0,-20.95125c0,-1.69875 0.57625,-3.11438 1.68073,-4.24688c1.10448,-1.08531 2.5451,-1.65156 4.32188,-1.65156l18.29594,0c8.35563,-25.71719 23.53021,-46.38531 45.52375,-62.09875c21.99354,-15.66625 46.96438,-23.49938 74.86448,-23.49938c12.72552,0 24.77875,1.41563 36.25573,4.24688c1.34458,0.3775 2.59313,1.27406 3.74563,2.73687c0.76833,1.32125 0.9124,2.83125 0.57625,4.38844l-8.01948,29.20907c-0.38417,1.60438 -1.24854,2.78406 -2.59313,3.58625c-1.34458,0.80219 -2.88125,0.94375 -4.46594,0.47187l-0.72031,-0.18875c-0.48021,-0.14156 -1.20052,-0.28313 -2.16094,-0.47188l-3.26542,-0.66062l-4.22584,-0.66063c-2.78521,-0.42469 -4.41792,-0.61343 -4.8501,-0.56625c-0.43219,0.04719 -2.25698,-0.09437 -5.42636,-0.47187c-3.16938,-0.3775 -5.04219,-0.42469 -5.52239,-0.18875c-15.70281,0 -29.77292,3.91656 -42.25834,11.74969c-12.4374,7.83313 -21.80146,18.59188 -28.04417,32.32344l87.44594,0c2.01688,0 3.55354,0.755 4.65802,2.21781c1.24854,1.46281 1.68073,3.06719 1.29656,4.76594l-4.51396,20.95125c-0.62427,3.16156 -2.59313,4.76594 -5.95459,4.76594l-91.19157,0c-0.38417,4.53 -0.38417,10.9475 0,19.29969l85.76521,0c1.87281,0 3.40948,0.755 4.65802,2.21782c1.10448,1.46281 1.48865,3.11438 1.10448,4.95469l-4.46594,20.57375c-0.24011,1.32125 -0.9124,2.45375 -2.0649,3.3975c-1.10448,0.89656 -2.35302,1.36844 -3.74563,1.36844l-72.31938,0c6.0026,14.345 15.27063,25.67 27.94813,34.06938c12.62948,8.39938 26.89167,12.59906 42.69052,12.59906c2.25698,0 4.46594,-0.09437 6.72292,-0.28313a156.70639,153.98698 0 0 0 11.7651,-1.46281c1.72875,-0.28313 3.26542,-0.61343 4.56198,-0.89656c1.29656,-0.33031 2.44906,-0.56625 3.4575,-0.80219l2.25698,-0.56625l0.9124,-0.3775c1.63271,-0.61344 3.21739,-0.47188 4.8501,0.3775c1.48865,0.84938 2.44906,2.12344 2.78521,3.86938l0.09604,0.18875zm0,0.04718"/>
  </g>
 </g>
</svg>