<svg width="1024" height="1024" xmlns="http://www.w3.org/2000/svg" p-id="1047" version="1.1" class="icon" t="1748770308161">

 <g>
  <title>Layer 1</title>
  <path stroke-width="10" id="svg_1" p-id="1048" fill="#F7F9FB" d="m888,788l-752,0c-39.76,0 -72,-32.24 -72,-72l0,-410c0,-39.76 32.24,-72 72,-72l752,0c39.76,0 72,32.24 72,72l0,410c0,39.76 -32.24,72 -72,72z"/>
  <g stroke="null">
   <path stroke="null" p-id="2273" fill="#EFE812" d="m404.09918,324.1922c9.68779,-11.57262 18.59819,-21.36539 27.08442,-29.67435c-143.27206,-4.82124 -101.54905,103.85933 -148.50507,214.17035c-53.74466,127.15212 6.36445,175.59497 95.89185,190.72818a194.21799,204.35754 0 0 1 -30.26665,-51.92875c-57.77525,-76.63248 -34.36822,-216.32183 55.79545,-323.29542z"/>
   <path stroke="null" p-id="2274" fill="#EDE70A" d="m748.84272,459.65237a407.757,429.0448 0 0 1 -72.34372,127.07834a346.83762,364.94499 0 0 1 -87.90079,79.89613a237.84808,250.26543 0 0 1 -129.69392,38.65008a512.02514,538.75647 0 0 1 -80.05084,-5.86054a163.56525,172.10451 0 0 0 53.53257,43.99142c129.55282,65.72754 137.68498,-56.30549 274.73369,-118.25018c76.9396,-34.79254 77.22267,-102.74533 41.65202,-165.50525m-160.17353,-126.85517a170.56337,179.46799 0 0 1 53.46245,19.88158c43.57902,25.70387 80.29842,62.48939 106.7812,106.97359c23.33691,-68.99119 12.4467,-123.14611 -38.53992,-132.93797c-56.14951,-10.75739 -99.99343,-14.24329 -142.14062,-45.10451c-51.90596,-37.83394 -97.44747,-25.51896 -136.90674,12.98264l8.55635,0.37072c54.73499,3.41212 107.06514,14.83718 148.50507,37.68546"/>
   <path stroke="null" p-id="2275" fill="#DEC21C" d="m404.09918,324.1922c-90.16367,106.97359 -113.5707,246.66294 -55.51237,323.29542a220.51118,232.02342 0 0 1 -17.11962,-105.40872a220.61766,232.13546 0 0 1 29.63643,-102.3072c48.86484,-85.46064 146.94859,-122.55313 227.49459,-106.9745c-41.72214,-23.14523 -94.05229,-34.27243 -148.50421,-37.68546l-8.55721,-0.44451c-8.76844,8.45653 -17.67885,17.95236 -27.43762,29.52497z"/>
   <path stroke="null" p-id="2276" fill="#E5CB22" d="m642.06066,352.53031a170.56684,179.47163 0 0 0 -53.46245,-19.73311c54.8761,30.26733 91.29511,81.60311 91.29511,162.76079a193.6475,203.75727 0 0 1 -24.7999,97.77835a194.35303,204.49963 0 0 1 -66.49521,73.2905a345.42916,363.46301 0 0 0 87.90079,-79.89613a407.74748,429.03478 0 0 0 72.34285,-127.07834c-26.4646,-44.53795 -63.18573,-81.3763 -106.7812,-107.12207z"/>
   <path stroke="null" p-id="2277" fill="#CCA727" d="m588.59821,332.7972c-80.546,-15.57863 -178.62975,21.51386 -227.49459,106.60287a220.39951,231.90592 0 0 0 -29.74984,102.48846a220.29476,231.7957 0 0 0 17.23302,105.59909a192.22779,202.26345 0 0 0 30.26665,51.92875a512.12989,538.86669 0 0 0 80.05084,5.86054a237.85587,250.27363 0 0 0 129.69392,-38.65008a194.27166,204.41401 0 0 0 66.50387,-73.28594a193.56786,203.67347 0 0 0 24.79124,-97.78291c0,-81.15769 -36.41901,-132.49346 -91.29511,-162.76079zm-9.05151,295.25335c-29.78966,20.07286 -65.94377,26.9554 -100.55785,19.14286c-34.61321,-7.81254 -64.86947,-29.68437 -84.15414,-60.83434c-40.02542,-64.76292 -20.2248,-148.36812 39.81419,-192.87874c67.17996,-50.07513 153.31304,-30.34202 184.71113,41.69147c30.62071,70.17805 22.20547,151.26196 -39.81333,192.87874z"/>
  </g>
 </g>
</svg>