<svg width="1024" height="1024" xmlns="http://www.w3.org/2000/svg" p-id="1047" version="1.1" class="icon" t="1748770308161">
 <g>
  <title>Layer 1</title>
  <path id="svg_1" p-id="1048" fill="#F7F9FB" d="m887,789l-752,0c-39.76,0 -72,-32.24 -72,-72l0,-410c0,-39.76 32.24,-72 72,-72l752,0c39.76,0 72,32.24 72,72l0,410c0,39.76 -32.24,72 -72,72z"/>
  <g stroke="null" id="svg_2">
   <path stroke="null" id="svg_3" d="m600.66974,539.66357a214.00722,224.66729 0 0 1 -58.09288,-26.01283s1.3508,-0.93959 1.79831,-1.40939a166.10753,174.38163 0 0 0 46.84723,-67.14615l-48.64554,0l0,-18.44388l57.19787,0l0,-11.80582l-57.19787,0l0,-25.05583l-29.72599,0l0,24.56863l-58.09288,0l0,11.83192l57.64538,0l0,18.90497l-47.74224,0l0,10.87493l95.93199,0a110.51736,116.02242 0 0 1 -33.7784,45.86609a147.80122,155.16346 0 0 1 -33.3309,-36.87905l-22.50788,0a152.31772,159.90493 0 0 0 42.33074,47.28418a213.57629,224.2149 0 0 1 -58.09288,26.47392l0,13.71111a291.09424,305.59415 0 0 0 73.40753,-29.7886a234.74166,246.43455 0 0 0 72.06501,29.7886l0,-13.22391l0,0.4698l-0.01657,-0.0087l-0.00003,0.00001zm59.91605,-147.51621l-26.57687,0c-5.41151,13.71111 -26.57687,69.50383 -26.57687,69.50383l22.06867,0l0,86.99942l22.52446,0l0,-109.69756l-11.27052,0l19.82285,-46.80569l0.00829,0l-0.00001,0zm13.05225,58.6289l23.41947,0l16.66545,52.00825l-23.41947,0l-16.65716,-52.00825l-0.00829,0z" fill="#4A4A4A" p-id="3121"/>
   <path stroke="null" id="svg_4" d="m764.61432,420.50916l-9.90314,0l0,-27.89201l-25.22607,0l0,27.89201l-65.7502,0l0,11.83192l65.7502,0l0,99.75353a5.95017,6.24656 0 0 1 -6.75402,7.09915l-13.06054,0l0,11.34472l37.83082,0a11.16278,11.71882 0 0 0 6.75402,-10.40513l0,-107.33118l9.91142,0l0.44751,-12.29302l0,0.00001zm154.48895,-6.61196l0,18.90498l-27.02438,0l0,-17.01709l-81.08142,0l0,17.01709l-28.37518,0l0,-27.42222l53.60125,0l0,-16.54729l31.07679,0l0,16.54729l45.03235,0c7.20981,0 6.76231,8.51724 6.76231,8.51724l0.00829,0l-0.00001,0zm6.75403,131.43872l-13.06054,-33.57308l-26.57687,0l9.00813,23.17664l-31.07679,0l0,-44.4567l54.94377,0l0,-11.33602l-54.94377,0l0,-23.17664l54.94377,0l0,-10.87493l-136.45612,0l0,10.87493l55.85536,0l0,23.17664l-55.85536,0l0,11.34472l55.85536,0l0,44.9178l-55.85536,0l0,10.40513l143.21843,-0.4785l-0.00001,0.00001zm-411.20813,98.82263l-4.05242,-13.71111l-24.31448,0l-4.95571,13.71111l-10.81473,0l24.77856,-69.03403l6.75402,0l26.12108,69.03403l-13.50805,0l-0.00829,0l0.00002,0zm-13.95555,-48.70227l-2.70161,0l-9.46392,27.90071l19.82285,0l-7.65732,-27.90071zm103.58931,47.28418l-38.28661,0l0,-68.08574l10.35893,0l0,60.047l27.92768,0l0,8.03875l0,-0.00001zm42.78653,-67.14615l11.25394,0l0,66.66765l-11.24565,0l0,-66.65895l-0.00829,-0.0087zm84.66976,41.61182l-14.85885,0l0,26.95242l-10.81472,0l0,-67.14615l25.67357,0a19.7234,20.70586 0 0 1 18.91955,20.34046a19.01071,19.95767 0 0 1 -18.91955,19.85327zm-0.9033,-31.20669l-13.95555,0l0,22.69815l13.95555,0a10.80644,11.34472 0 1 0 0,-22.69815zm92.33537,58.15911l-4.0607,-13.71111l-24.31448,0l-4.95571,13.71111l-11.26223,0l25.22607,-69.03403l6.75402,0l26.12108,69.03403l-13.50804,0l-0.00001,0zm-14.41963,-48.70227l-2.70161,0l-9.00812,27.90071l19.82285,0l-8.10483,-27.90071l-0.00829,0zm104.50089,-18.91367l-19.37534,34.99117l0,30.72819l-11.70973,0l0,-31.19799l-19.81456,-34.52137l9.91142,0l14.85885,27.42221l14.86714,-27.42221l11.25394,0l0.00829,0l-0.00001,0z" fill="#4A4A4A" p-id="3122"/>
   <path stroke="null" id="svg_5" d="m177.31266,598.76227c-41.88323,0 -49.09304,-27.89201 -46.83894,-39.23674a36.02422,37.81865 0 0 1 37.37502,-26.48262c27.95254,0.78299 55.36641,8.22144 80.16984,21.74985c-20.26207,27.42222 -45.03234,43.9695 -70.70592,43.9695l0,0.00001zm208.08191,-26.47392l0,-148.943a55.39956,58.15911 0 0 0 -55.39956,-58.14171l-177.45263,0a55.39956,58.15911 0 0 0 -55.39956,58.14171l0,186.29185a55.39956,58.15911 0 0 0 55.39956,58.15911l177.45263,0a56.0211,58.81161 0 0 0 54.94377,-47.27548c-14.41134,-6.62066 -78.36324,-35.46966 -111.69413,-52.01695c-25.22607,31.20669 -51.79466,51.06866 -90.97627,51.06866c-39.18991,0 -66.66179,-26.01283 -63.96018,-57.68061c2.25411,-20.34046 15.77044,-54.37463 74.31911,-48.23248c24.28133,2.34898 48.09859,8.39544 70.70592,17.96538a194.06835,203.73523 0 0 0 15.76215,-40.66353l-112.14164,0l0,-11.34473l55.39956,0l0,-21.28006l-67.11758,0l0,-12.76281l67.5568,0l0,-30.2584a5.85072,6.14216 0 0 1 5.85901,-4.73277l27.01609,0l0,34.99117l72.06501,0l0,12.76281l-72.05672,0l0,21.28006l59.00447,0a203.3168,213.44437 0 0 1 -23.86698,62.88318l94.58118,29.7886l-0.00001,0z" fill="#1F9EDA" p-id="3123"/>
  </g>
 </g>

</svg>