<?xml version="1.0" standalone="no"?><!DOCTYPE svg PUBLIC "-//W3C//DTD SVG 1.1//EN" "http://www.w3.org/Graphics/SVG/1.1/DTD/svg11.dtd"><svg t="1748623858620" class="icon" viewBox="0 0 1024 1024" version="1.1" xmlns="http://www.w3.org/2000/svg" p-id="1972" xmlns:xlink="http://www.w3.org/1999/xlink" width="256" height="256"><path d="M888 789H136c-39.76 0-72-32.24-72-72V307c0-39.76 32.24-72 72-72h752c39.76 0 72 32.24 72 72v410c0 39.76-32.24 72-72 72z" fill="#F7F9FB" p-id="1973"></path><path d="M575.49 424.87c0.03 0.86 0.09 1.73 0.09 2.59l-0.03 161.59v6.09h28.48c0.11-1.86 0.27-3.42 0.27-4.99 0-44.23-0.03-88.45-0.02-132.68 0-10.87 0.1-21.74 0.16-32.6h-28.95zM541.45 457.84c-0.07-10.99-0.07-21.98-0.09-32.96h-28.2c-0.03 55.49-0.05 110.99-0.06 166.48 0 1.18 0.26 2.37 0.42 3.73h27.9c0.13-2.15 0.35-3.96 0.34-5.77-0.07-14.57-0.27-29.13-0.27-43.7 0.01-14.81 0.3-29.63 0.29-44.44 0.01-14.45-0.23-28.9-0.33-43.34zM835.09 473.99c-13.21-1.01-23.6 4.98-32.76 13.76-1.54 1.48-3.14 2.89-4.72 4.33-0.36-0.13-0.72-0.26-1.09-0.4v-15.64h-28.34v119h28.35v-4.78c0.01-21.88 0.24-43.76-0.11-65.63-0.09-5.57 1.61-9.17 5.88-12.51 8.88-6.94 18.29-11.77 29.97-10.16 2.28 0.31 4.53 0.79 7.1 1.25 0.38-1.54 0.72-2.82 1.02-4.11 1.73-7.43 3.45-14.87 5.18-22.3v-0.74c-3.49-0.71-6.95-1.8-10.48-2.07zM734.06 503.24c-2.05-14.11-9.91-23.38-23.65-27.45-12.39-3.67-25.09-4.02-37.84-2.97-9.32 0.77-18.31 2.9-26.47 7.72-5.12 3.02-9.72 6.62-12.78 12.53 7.46 4.82 14.64 9.46 21.57 13.94 2.51-2.35 4.36-4.57 6.66-6.15 9.04-6.25 19.26-6.64 29.58-4.97 12.39 2.01 17.34 9.91 14.48 22.41-0.7 0.23-1.48 0.66-2.3 0.74-5.77 0.6-11.55 1.16-17.33 1.67-10.6 0.93-21.13 2.17-31.22 5.89-13.24 4.88-20.95 14.08-23.21 28.16-4 24.93 12.16 44.16 37.27 44.36 13.64 0.11 25.35-4.53 35.78-13.01 0.98-0.79 2.05-1.46 3.68-2.61 0.2 4.37 0.37 7.88 0.54 11.67h25.88c0.09-1.78 0.21-3.12 0.21-4.45 0.02-25.22 0.07-50.43 0.01-75.65-0.02-3.97-0.3-7.94-0.86-11.83z m-28.05 58.84c-0.02 0.87-1.1 1.88-1.92 2.55-6.4 5.22-13.55 9.1-21.63 10.88-2.93 0.64-6.15 0.61-9.14 0.19-7.8-1.1-11.16-4.22-12.32-10.71-1.33-7.42 1.61-14.72 7.28-18.09 8.03-4.78 17.07-5.4 26.03-6.3 3.65-0.37 7.32-0.61 11.79-0.98 0 7.98 0.06 15.22-0.09 22.46zM450.37 474.18c-12.32-2.94-24.8-2.68-37.06 0.65-15.24 4.14-26.1 13.59-31.31 28.51-7.26 20.79-7.64 41.97-0.91 62.99 4.96 15.51 15.73 25.36 31.4 29.82 12.84 3.65 25.86 3.59 38.95 1.76 8.33-1.16 16.18-3.79 22.84-9.02 3.6-2.83 6.67-6.32 10.38-9.91-7.75-5.57-14.6-10.49-21.38-15.36-11.36 12.01-30.31 11.7-41.3 7.85-10.18-3.56-17.9-18.15-14.82-28.61h78.43c0.03-13.09 0.67-25.3-2.89-37.24-4.92-16.54-15.46-27.41-32.33-31.44z m5.98 48.88h-48.41c-1.46-8.34 4.1-20.34 11.32-24.79 7.57-4.67 21.77-4.1 28.96 1.17 6.21 4.55 10.09 15.5 8.13 23.62zM259.25 531.53c-9.01-4.41-18.99-6.85-28.53-10.18-5.7-1.99-11.69-3.39-17.02-6.09-6.18-3.13-6.43-11.23-0.91-15.46 1.8-1.38 4.1-2.7 6.29-2.91 5.37-0.51 10.85-0.88 16.19-0.36 7.57 0.75 13.5 5.02 18.43 11.11l20.83-14.98c0.37-0.71 0.74-1.42 1.1-2.13-3.1-2.44-6.03-5.14-9.33-7.28-21.33-13.83-44.32-15.23-66.8-4.96-26.33 12.02-23.42 47.87-3.86 59.17 7.37 4.26 15.84 6.71 23.95 9.6 7.43 2.65 15.18 4.4 22.53 7.24 5.38 2.07 7.15 6.75 5.73 11.76-1.21 4.28-4.33 6.76-8.32 7.68-14.24 3.28-27.79 2.97-38.68-8.78-0.39-0.43-0.96-0.69-1.75-1.25-6.84 4.83-13.64 9.64-20.68 14.62 3.8 5.76 8.31 10.02 13.99 12.98 13.61 7.08 28.25 8.55 43.25 7.42 9.87-0.75 19.16-3.53 27.42-9.26 18.24-12.66 19.42-46.55-3.83-57.94zM347.3 575.17c-8.17 1.02-13.65-3.12-15.04-11.24-0.5-2.91-0.82-5.89-0.83-8.85-0.07-17.31-0.03-34.62 0.02-51.92 0-1.42 0.33-2.83 0.6-4.97h27.07v-22.74h-27.84v-33.04h-28.7v33.31h-14.55v22.74h14.38c0.12 2.17 0.27 3.63 0.27 5.09 0.02 11.86-0.02 23.72 0.02 35.58 0.02 5.43 0.36 10.87 0.21 16.3-0.22 7.96 0.18 15.81 2.69 23.43 2.67 8.08 7.72 13.93 15.85 16.98 8.66 3.25 17.62 3.8 26.66 2.95 5.84-0.55 11.63-1.77 17.99-2.78-1.76-8.29-3.36-15.81-4.95-23.34-4.93 0.89-9.36 1.93-13.85 2.5z" fill="#00BDED" p-id="1974"></path></svg>