<?xml version="1.0" standalone="no"?><!DOCTYPE svg PUBLIC "-//W3C//DTD SVG 1.1//EN" "http://www.w3.org/Graphics/SVG/1.1/DTD/svg11.dtd"><svg t="1748623856498" class="icon" viewBox="0 0 1024 1024" version="1.1" xmlns="http://www.w3.org/2000/svg" p-id="1804" xmlns:xlink="http://www.w3.org/1999/xlink" width="256" height="256"><path d="M888 789H136c-39.76 0-72-32.24-72-72V307c0-39.76 32.24-72 72-72h752c39.76 0 72 32.24 72 72v410c0 39.76-32.24 72-72 72z" fill="#F7F9FB" p-id="1805"></path><path d="M470.9 523.68c-5.02-2.43-10.37-3.97-15.56-5.94-2.58-0.98-5.14-2-7.33-3.74-1.62-1.29-2.77-2.87-2.82-5.05-0.1-4.15 2.48-7.06 7.1-7.87 5.51-0.97 10.76 0.08 15.9 2.08 1.99 0.77 3.84 1.89 5.96 2.34 2.22 0.47 4.21 0.07 5.58-1.88 1.17-1.67 2.2-3.45 2.93-5.37 1.33-3.52 0.35-6.08-2.93-7.91-6.77-3.78-14.03-5.72-21.79-5.8-6.25-0.06-12.3 0.84-18.03 3.47-10.22 4.69-15.16 13.84-13.49 24.94 1.02 6.75 4.88 11.5 10.49 15.04 5.36 3.37 11.36 5.24 17.25 7.38 3.21 1.17 6.47 2.28 9.25 4.36 4.43 3.32 4.05 9.24-0.75 12.04-1.76 1.03-3.68 1.5-5.7 1.65-5.75 0.43-11.12-0.99-16.23-3.5-1.79-0.88-3.52-1.89-5.35-2.67-2.74-1.17-4.94-0.75-6.74 1.32-1.5 1.72-2.82 3.61-3.71 5.72-1.15 2.75-0.45 5.06 1.99 6.75 4.77 3.29 9.92 5.79 15.58 7.14 2.33 0.56 4.7 0.98 7.05 1.47h9.99c0.94-0.53 2.02-0.41 3.03-0.6 6.66-1.27 12.6-3.89 17.25-9 7.59-8.35 7.74-21.88 0.29-29.96-2.6-2.83-5.81-4.77-9.21-6.41zM704.84 523.41c-5.08-2.39-10.49-3.91-15.71-5.95-2.49-0.97-4.94-2-6.98-3.78-1.92-1.67-2.84-3.75-2.35-6.35 0.64-3.37 3.04-5.57 7.05-6.27 5.46-0.95 10.67 0.08 15.76 2.05 1.99 0.77 3.84 1.88 5.95 2.35 2.16 0.49 4.17 0.18 5.52-1.68 1.42-1.95 2.64-4.07 3.34-6.42 0.85-2.86-0.03-5.26-2.62-6.71-12.29-6.88-25.2-8.23-38.46-3.44-12.04 4.35-17.71 14.76-15.18 27.01 1.36 6.56 5.55 10.98 11.14 14.28 5.36 3.17 11.28 4.97 17.07 7.1 3.03 1.12 6.04 2.26 8.68 4.21 4.72 3.47 3.29 9.52-0.82 11.88-1.81 1.04-3.76 1.56-5.83 1.71-6.32 0.45-12.11-1.32-17.63-4.23-1.47-0.77-2.88-1.66-4.48-2.17-2.16-0.69-4.21-0.54-5.8 1.16-1.69 1.8-3.14 3.84-4.09 6.14-1.12 2.71-0.44 5.03 1.9 6.64 5.17 3.57 10.77 6.21 16.94 7.53 1.99 0.43 3.99 0.77 5.98 1.16h9.71c0.39-0.37 0.89-0.27 1.35-0.34 6.54-0.93 12.5-3.15 17.47-7.66 8.83-8.01 9.87-22.53 2.2-31.18-2.8-3.15-6.34-5.26-10.11-7.04zM610.68 486.55c-2.94-0.33-5.9-0.25-8.83-0.11-4.18 0.2-5.94 1.72-7.05 5.76-1.85 6.68-3.69 13.36-5.46 20.05-2.84 10.73-6.07 21.37-8.56 32.19-0.3 1.32-0.52 2.66-0.78 3.99h-0.27c-0.33-1.76-0.52-3.56-1.01-5.28-4.85-17.22-9.74-34.43-14.65-51.63-0.79-2.78-2.67-4.55-5.56-4.83-3.03-0.3-6.09-0.3-9.12 0-2.94 0.3-4.78 2.08-5.6 4.94-2.63 9.17-5.34 18.32-7.91 27.5-2.39 8.54-5.24 16.96-7.11 25.65-0.26 1.22-0.28 2.5-0.91 4.04-0.62-3.18-0.99-6.01-1.73-8.75-4.4-16.31-8.87-32.6-13.36-48.89-0.68-2.48-2.32-4.23-4.94-4.56-3.73-0.47-7.5-0.43-11.24-0.03-2.51 0.27-4.07 2.03-4.22 4.44-0.07 1.11 0.08 2.18 0.41 3.23 7.01 22.72 14.02 45.44 21.05 68.15 1.15 3.72 3.37 5.33 7.28 5.35 3.57 0.01 7.14 0.01 10.7 0 4.19-0.01 6.35-1.59 7.55-5.55 4.04-13.4 8.07-26.81 12.13-40.21 0.93-3.07 1.56-6.22 2.32-9.35 0.36 0.14 0.44 0.36 0.48 0.6 0.92 6.33 3.11 12.32 4.93 18.41 3.06 10.28 6.17 20.54 9.28 30.81 1.05 3.49 3.39 5.24 7.06 5.29 3.42 0.04 6.85 0.01 10.28 0.01 4.94 0 6.96-1.51 8.4-6.21 6.07-19.88 12.17-39.75 18.22-59.63 0.95-3.13 2.15-6.2 2.72-9.43 0.58-3.32-1.16-5.57-4.5-5.95zM807.79 504.4c-1.8-7.89-5.79-14.11-13.49-17.43-3.89-1.68-8.01-2.29-12.22-2.43-10.14-0.33-18.7 3.14-25.68 10.51-1.63 1.72-2.92 3.71-4.45 5.66 0.13-1.6 0.36-3.19 0.37-4.79 0.05-11.66 0.06-23.31 0.07-34.97 0-0.56-0.12-1.13-0.22-1.69-0.49-2.74-2.24-4.39-5-4.65-3.23-0.3-6.46-0.31-9.68-0.01-3.03 0.28-5.03 2.35-5.25 5.4-0.05 0.71-0.06 1.43-0.06 2.14v98.07c0 0.76 0.01 1.52 0.07 2.28 0.23 2.77 1.99 4.75 4.72 5.1 3.36 0.42 6.75 0.37 10.11 0.06 3.25-0.3 4.67-1.84 5.18-5.08 0.11-0.7 0.14-1.42 0.14-2.13 0.01-10.28 0.02-20.56 0-30.83-0.01-2.63 0.31-5.21 0.89-7.77 2.86-12.43 12.5-19.75 24.84-18.76 4.41 0.35 7.56 2.6 9.19 6.8 0.97 2.51 1.34 5.16 1.37 7.82 0.08 8.42 0.06 16.84 0.07 25.27 0.01 6.23-0.01 12.47 0.01 18.7 0.01 3.6 1.73 5.68 5.31 6 3.26 0.29 6.56 0.34 9.82-0.06 2.81-0.34 4.29-1.89 4.83-4.65 0.16-0.8 0.2-1.6 0.2-2.41 0-15.08 0.01-30.17-0.01-45.25 0-3.67-0.31-7.32-1.13-10.9zM646.82 492c-0.18-3.15-2.01-5.1-5.14-5.45-2.84-0.32-5.71-0.25-8.55-0.11-3.95 0.21-5.73 1.93-6.19 5.56-0.06 0.47-0.04 0.95-0.04 1.42V561.48c0.09 4.07 2.24 6.24 6.3 6.3 2.28 0.03 4.57 0.01 6.85 0.01 4.79 0 6.79-1.98 6.79-6.73v-33.81-33.67c0-0.53 0.01-1.06-0.02-1.58zM830.32 456.92c-9.58-0.01-17.25 7.79-17.27 17.56-0.02 9.74 7.68 17.69 17.16 17.72 9.62 0.02 17.29-7.82 17.29-17.67 0-9.83-7.59-17.61-17.18-17.61z m-0.16 32c-7.76-0.02-13.62-6.3-13.59-14.52 0.04-8.1 5.98-14.27 13.73-14.24 7.76 0.03 13.85 6.36 13.84 14.38-0.01 8.11-6.13 14.4-13.98 14.38z" fill="#4A4A4C" p-id="1806"></path><path d="M833.81 475.84c0.16-0.12 0.27-0.21 0.39-0.28 2.41-1.39 3.32-3.54 2.67-6.28-0.54-2.25-2.43-3.72-5.05-3.82-1.8-0.07-3.61-0.06-5.42-0.04-1.77 0.02-1.99 0.23-2 1.99-0.02 4.71-0.02 9.42 0 14.12 0 1.59 0.43 2.06 1.7 2.03 1.32-0.03 1.65-0.83 1.62-2-0.04-1.64-0.01-3.29-0.01-4.9 2.94-0.42 2.94-0.42 4.07 1.95 0.59 1.24 1.17 2.49 1.8 3.72 0.57 1.1 2.12 1.67 3.02 1.05 1.12-0.78 0.23-1.61-0.12-2.35-0.85-1.75-1.77-3.46-2.67-5.19z m-0.68-3.07c-1.32 2.01-3.41 1.03-5.32 1.33v-6.18c1.9 0.22 3.97-0.72 5.33 1.21 0.79 1.12 0.74 2.5-0.01 3.64z" fill="#4A4A4C" p-id="1807"></path><path d="M188.07 475.17c0-3.48 0.18-6.92 0.52-10.31-7.7 13.92-12.08 29.93-12.08 46.96 0 30.61 14.15 57.91 36.27 75.72l21.25-26.68c-27.69-17.79-45.96-48.8-45.96-85.69z" fill="#83DAF2" p-id="1808"></path><path d="M285.73 418.21c9.42 0 18.47 1.61 26.88 4.56-11.92-5.22-25.1-8.12-38.95-8.12-36.63 0-68.52 20.27-85.08 50.2-0.34 3.39-0.52 6.83-0.52 10.31 0 36.89 18.27 67.9 45.96 85.7l0.01-0.01c-18.07-14.59-29.39-36.26-29.39-61.55 0-44.78 36.31-81.09 81.09-81.09z" fill="#33EF5B" p-id="1809"></path><path d="M359.22 548.83c0 3.48-0.18 6.92-0.52 10.31 7.7-13.92 12.08-29.93 12.08-46.96 0-30.61-14.15-57.91-36.27-75.72l-21.25 26.68c27.69 17.79 45.96 48.8 45.96 85.69z" fill="#FFAB17" p-id="1810"></path><path d="M261.55 605.79c-9.42 0-18.47-1.61-26.88-4.56 11.92 5.22 25.1 8.12 38.95 8.12 36.63 0 68.52-20.27 85.08-50.2 0.34-3.39 0.52-6.83 0.52-10.31 0-36.89-18.27-67.9-45.96-85.7l-0.01 0.01c18.07 14.59 29.39 36.26 29.39 61.55 0 44.78-36.3 81.09-81.09 81.09z" fill="#FF00FF" p-id="1811"></path></svg>