<svg width="1024" height="1024" xmlns="http://www.w3.org/2000/svg" p-id="1047" version="1.1" class="icon" t="1748770308161">

 <g>
  <title>Layer 1</title>
  <path stroke-width="10" id="svg_1" p-id="1048" fill="#F7F9FB" d="m888,788l-752,0c-39.76,0 -72,-32.24 -72,-72l0,-410c0,-39.76 32.24,-72 72,-72l752,0c39.76,0 72,32.24 72,72l0,410c0,39.76 -32.24,72 -72,72z"/>
  <g stroke="null">
   <path stroke="null" p-id="6111" fill="#1BA27A" d="m759.45273,506.49998c0,133.6305 -110.78459,241.95275 -247.45273,241.95275c-136.66319,0 -247.45273,-108.32225 -247.45273,-241.95275c0,-133.62808 110.78954,-241.95275 247.45273,-241.95275c136.66814,0 247.45273,108.32467 247.45273,241.95275"/>
   <path stroke="null" p-id="6112" fill="#FFFFFF" d="m628.13698,386.55433l-234.31299,0l0,55.3104l88.87265,0l0,81.29612l56.56769,0l0,-81.29612l88.87265,0l0,-55.3104z"/>
   <path stroke="null" p-id="6113" fill="#FFFFFF" d="m511.51746,531.82034c-73.51821,0 -133.12215,-11.37662 -133.12215,-25.4123c0,-14.03326 59.60146,-25.4123 133.12215,-25.4123c73.5182,0 133.11967,11.37904 133.11967,25.4123c0,14.03568 -59.60147,25.4123 -133.11967,25.4123m149.47382,-21.1757c0,-18.09807 -66.92112,-32.76766 -149.47382,-32.76766c-82.55023,0 -149.4763,14.6696 -149.4763,32.76766c0,15.93743 51.89331,29.2158 120.65795,32.15794l0,116.70349l56.56275,0l0,-116.65751c69.29419,-2.85021 121.72942,-16.18422 121.72942,-32.20391"/>
  </g>
 </g>
</svg>