<svg width="1024" height="1024" xmlns="http://www.w3.org/2000/svg" p-id="1047" version="1.1" class="icon" t="1748770308161">

 <g>
  <title>Layer 1</title>
  <path stroke-width="10" id="svg_1" p-id="1048" fill="#F7F9FB" d="m888,788l-752,0c-39.76,0 -72,-32.24 -72,-72l0,-410c0,-39.76 32.24,-72 72,-72l752,0c39.76,0 72,32.24 72,72l0,410c0,39.76 -32.24,72 -72,72z"/>
  <path stroke="null" p-id="5098" fill="#22AE1C" d="m878.86499,613.59986a6.50479,6.2701 0 0 1 -6.02493,4.5594a9.68101,9.33173 0 0 1 -3.48852,-0.7342l-1.91183,-0.7342l0,8.72234l0.95211,0.29368a16.36099,15.77069 0 0 0 5.02712,0.60205a17.51875,16.88668 0 0 0 15.60692,-12.81919l18.28043,-43.27396l0,-1.68133l-9.53629,0l-10.96064,28.09797l-10.38938,-27.96581l-10.91494,0l16.2772,38.58974l-2.91725,6.34352zm-7.28171,-116.89255l10.73214,-6.20402l-0.6779,-1.09396c-6.85516,-11.01305 -12.10317,-18.89106 -16.52094,-24.75l-0.76168,-1.0132l-10.09232,5.91768l0.84547,1.12333a223.88199,215.80446 0 0 1 15.78972,24.77203l0.68552,1.24815zm-39.75994,109.71204a14.77668,14.24355 0 0 0 10.25227,3.28189a15.02804,14.48584 0 0 0 11.05204,-4.22167l0,3.28923l9.8105,0l0,-25.42547a14.36537,13.84708 0 0 0 -15.99538,-15.55777a28.44131,27.41516 0 0 0 -14.60911,3.67102l-4.26544,2.40819l3.73987,0l0,7.87066l2.28505,-1.7474a19.11067,18.42117 0 0 1 12.27836,-4.23636a6.20011,5.97642 0 0 1 6.72568,6.7767l-10.66359,1.46841c-11.98892,1.62259 -14.47201,8.25979 -14.47201,13.54606a11.96607,11.53434 0 0 0 3.86174,8.87652zm-43.08851,2.34945l9.9476,0l0,-19.45639l6.00969,0a22.53825,21.72508 0 0 0 15.70594,-4.86043a17.69394,17.05555 0 0 0 6.33722,-13.502a16.14772,15.56512 0 0 0 -5.49175,-12.70172a22.39353,21.58558 0 0 0 -15.08136,-4.45662l-17.42735,0l0,54.97716zm-55.37448,-31.98191l6.85516,0l0,20.28605a11.212,10.80748 0 0 0 12.13364,12.48146a14.59388,14.06734 0 0 0 6.9618,-1.35828l0.76168,-0.37444l0,-8.97197l-2.23935,1.56385a5.56792,5.36703 0 0 1 -3.30571,0.93978a4.14357,3.99407 0 0 1 -3.32095,-1.07928a7.76918,7.48888 0 0 1 -1.00542,-4.55206l0,-19.08929l10.01615,0l0,-8.07624l-10.01615,0l0,-11.54168l-9.95522,2.93681l0,8.70765l-6.85516,0l0,8.07624l-0.03047,0.05139zm-35.33455,29.63246a14.79192,14.25823 0 0 0 10.25227,3.28189a15.04327,14.50052 0 0 0 11.05966,-4.22167l0,3.28923l9.80288,0l0,-25.42547a14.36537,13.84708 0 0 0 -15.99538,-15.55777a28.38799,27.36377 0 0 0 -14.60149,3.67102l-4.27305,2.40819l3.73987,0l0,7.87066l2.28505,-1.7474a19.1259,18.43585 0 0 1 12.27836,-4.23636a6.1925,5.96907 0 0 1 6.72568,6.7767l-10.66359,1.46841c-11.98892,1.62259 -14.47201,8.25979 -14.47201,13.54606a11.96607,11.53434 0 0 0 3.86174,8.87652zm-79.42848,-138.03027l0,9.80162l70.33396,0l0,-9.80162l-70.31873,0l-0.01523,0zm70.33396,-7.38609l0,-9.80162l-70.31873,0l0,9.80162l70.33396,0l-0.01523,0zm-1.00542,24.71329l-68.04129,0l0,41.65137l11.67663,0l0,-6.39491l44.71089,0l0,6.39491l11.65378,0l0,-41.65137zm-36.99503,123.07455l9.95522,0l0,-22.48866a10.56457,10.1834 0 0 1 2.65066,-7.40077a8.6375,8.32587 0 0 1 6.67997,-2.89276c3.26763,0 7.61685,1.03523 7.61685,10.02188l0,22.76031l9.95522,0l0,-24.35353c0,-13.74429 -8.15764,-16.62971 -14.99757,-16.62971a15.85828,15.28612 0 0 0 -11.90513,4.63282l0,-21.68837l-9.95522,0l0,58.00208l0,0.03671zm-44.68804,-6.80607a27.25308,26.2698 0 0 0 20.32936,7.60635a36.13432,34.83062 0 0 0 16.23912,-3.21581l0.76168,-0.35976l0,-9.46388l-2.10225,1.1527a27.80911,26.80577 0 0 1 -13.88551,3.28189a17.62538,16.98947 0 0 1 -13.4285,-5.13942a19.94091,19.22145 0 0 1 -5.20992,-14.04531a21.32717,20.5577 0 0 1 5.49175,-14.83826a19.04212,18.35509 0 0 1 14.2892,-5.44779a25.4555,24.53708 0 0 1 12.6135,2.89276l2.09463,1.11599l0,-10.22011l-0.815,-0.34508a34.32151,33.08321 0 0 0 -13.89313,-2.25401a29.53052,28.46507 0 0 0 -21.609,8.12029a29.88851,28.81015 0 0 0 -8.55372,21.29191a28.27374,27.25364 0 0 0 7.67778,19.84552l0,0.02203zm-44.5357,1.96767a18.69936,18.0247 0 0 0 14.63958,5.63868a26.24766,25.30066 0 0 0 14.80715,-3.67102l0.60935,-0.38913l0,-9.13349l-2.22412,1.54183a19.69717,18.98651 0 0 1 -11.61569,3.7371a11.3491,10.93963 0 0 1 -8.3176,-2.93682a11.10536,10.70469 0 0 1 -3.04674,-6.96759l28.09855,0l0,-4.77232a20.56549,19.8235 0 0 0 -4.79861,-14.06734a17.35118,16.72516 0 0 0 -13.3371,-5.08803a18.82123,18.14217 0 0 0 -14.35014,6.02781a21.84512,21.05696 0 0 0 -5.6517,14.99244a22.15741,21.35798 0 0 0 5.18707,15.06586l0,0.02203zm-64.97171,4.70625l10.54933,0l11.37195,-37.59122l11.26532,37.59122l10.56457,0l16.52094,-54.97716l-10.75499,0l-11.03681,39.77181l-11.56999,-39.77181l-9.27732,0l-12.29359,39.83789l-11.52429,-39.85991l-10.94541,0l17.13029,54.99919zm-8.02816,-93.40538l-1.25678,0.77826l0.91402,1.09396a68.1327,65.67451 0 0 1 5.04997,6.65923l0.80739,1.24815l1.24155,-0.88104a34.20726,32.97308 0 0 0 12.14125,-28.35494l0,-3.63431l12.36976,0l0,9.49325a9.52868,9.18489 0 0 1 -2.73445,6.80607l-0.89117,0.82965l7.61685,8.81044l1.09683,-1.02054l1.43959,-1.37296c0.96734,-0.93244 1.97276,-1.90159 3.10006,-2.85605a264.11417,254.58509 0 0 1 14.23589,-11.40218l0.7236,-0.53597l-0.25136,-0.82965c-0.51033,-1.72538 -0.95972,-3.67102 -1.43958,-5.80755l-0.5408,-2.38616l-0.52556,-2.23932l-1.79758,1.5712a320.21225,308.65919 0 0 1 -9.66578,8.12029l0,-17.00416l-33.278,0l0,12.6283a22.95718,22.1289 0 0 1 -8.35568,20.26402l0,0.02203zm-120.4452,-62.34857l-164.7067,88.44951l-0.99781,0.52863a8.87363,8.55347 0 0 1 -4.2959,0.93978a9.55153,9.20691 0 0 1 -8.29475,-4.53738l-0.57888,-1.32891l-26.042,-53.17102a4.37207,4.21433 0 0 1 -0.42654,-1.86488a4.68436,4.51535 0 0 1 4.72245,-4.40522a4.44062,4.28041 0 0 1 2.85632,0.93244l30.62734,20.24933a14.84523,14.30963 0 0 0 7.8682,2.13653a13.71032,13.21566 0 0 0 4.86716,-0.80028l144.52967,-59.96975a155.6198,150.00513 0 0 0 -116.91098,-47.0184c-78.99432,0 -143.09771,49.70558 -143.09771,111.00424c0,33.45032 19.31632,63.56735 49.50951,83.96352a9.04881,8.72234 0 0 1 4.00646,7.19519a10.32083,9.94846 0 0 1 -0.57126,2.79732c-2.42978,8.39195 -6.29913,21.72508 -6.43624,22.38587a13.71032,13.21566 0 0 0 -0.71598,3.20113a4.67674,4.50801 0 0 0 4.72244,4.40522a6.29913,6.07186 0 0 0 2.71921,-0.80028l31.48043,-16.52692a14.51771,13.99392 0 0 1 7.61685,-1.99703a19.63623,18.92777 0 0 1 4.15118,0.53597a176.58136,170.21042 0 0 0 46.65319,6.12326c78.9867,0 143.09771,-49.70558 143.09771,-111.00424a96.73396,93.24385 0 0 0 -16.35337,-51.44564l0,0.02203zm116.43874,-33.27411l-0.6322,1.27017a103.90903,100.16005 0 0 1 -21.32717,27.48858l-0.60173,0.57268l0.26659,0.7342c0.98257,2.7239 1.988,5.54324 2.68875,8.16434l0.59412,2.20261l1.74426,-1.57854a134.21646,129.37401 0 0 0 26.30097,-32.71611l0.6322,-1.11599l-9.66578,-5.02195zm94.18993,20.10984l-24.37391,0c1.41673,-5.52855 2.72683,-11.32142 3.89221,-17.25378l0.25136,-1.27751l-10.54172,-1.82082l-0.19804,1.35828a162.50543,156.64233 0 0 1 -10.52648,38.5824l0,-30.10235l-10.09232,0l0,18.88372l-6.64951,0l0,-27.04806l-10.37414,0l0,27.16553l-6.67998,0l0,-18.92777l-10.09232,0l0,23.37704l-9.0412,-3.9647l-0.57126,1.22612a135.41231,130.52671 0 0 1 -21.82227,32.85561l-0.5408,0.58736l0.29706,0.7342c1.01304,2.48161 2.01085,5.31563 2.97057,8.42132l0.6779,2.20261l1.69094,-1.70335a115.86748,111.68705 0 0 0 7.61685,-8.44334l0,42.07721l10.5341,0l0,-56.90078c2.62019,-4.02344 5.18707,-8.51676 8.22619,-14.39773l0,2.6725l33.76548,0l0,3.46544l9.14022,0c-0.52556,1.14536 -1.05874,2.28337 -1.61477,3.39202l-38.99064,0l0,10.06593l39.2877,0l0,-7.50356a49.17436,47.40018 0 0 1 4.94333,5.13942l1.42435,1.68867l0.9521,-1.96032c0.41893,-0.88104 0.84547,-1.74006 1.27201,-2.60642l0.38084,-0.77826a106.1103,102.2819 0 0 0 7.12175,27.95113a93.07787,89.71968 0 0 1 -18.74506,22.02611l-0.94449,0.83699l0.83785,0.93978c1.85851,2.0778 3.6637,4.23636 5.52983,6.60783l0.96734,1.23346l1.15014,-1.09396a112.4856,108.42719 0 0 0 16.71136,-19.73539a88.94954,85.74029 0 0 0 15.80496,18.95714l1.34057,1.22612l0.87594,-1.55651c1.52337,-2.7239 3.04674,-5.33766 4.8367,-8.21574l0.57126,-0.93244l-0.86832,-0.7342a68.55162,66.07832 0 0 1 -16.68089,-19.44171a148.62754,143.26514 0 0 0 10.77022,-47.03308l5.53745,0l0,-10.33024l-0.03047,0.0881zm25.97345,-20.70454l-0.38084,1.26283a182.52251,175.93721 0 0 1 -25.1356,51.0712l-0.41131,0.57268l5.05759,11.51966l1.48528,-1.77677a132.25893,127.48711 0 0 0 8.66035,-11.79865l0,57.4808l11.09013,0l0,-77.54658a266.7496,257.12544 0 0 0 10.81592,-26.39462l0.43416,-1.27751l-11.61569,-3.11302zm90.93754,14.68407l-35.29647,0l1.19585,-0.57268l-0.76168,-1.18941a325.37647,313.63709 0 0 0 -8.18811,-12.1731l-0.69313,-0.98383l-10.19134,4.92651l0.80739,1.19675c1.86613,2.7606 3.80842,5.75615 5.88021,8.92792l-36.28666,0l0,9.93377l83.50349,0l0,-10.06593l0.03047,0zm98.75242,33.5531l0.12187,-0.24963l0,-9.04539l-32.33352,0l0,-13.25972l49.64661,0l0,-10.33024l-49.64661,0l0,-15.32283l-12.24027,0l0,15.32283l-52.09162,0l0,10.4624l52.09162,0l0,13.39187l-40.78822,0l0,10.33024l11.7528,0a92.68179,89.33789 0 0 0 24.28251,33.77336a201.27518,194.0133 0 0 1 -46.53894,14.58128l-2.11748,0.44787l1.31772,1.6079a40.27789,38.82469 0 0 1 4.84431,8.12763l0.47225,1.0132l1.15014,-0.27166a194.67899,187.65509 0 0 0 50.85769,-18.35509a146.70809,141.41495 0 0 0 49.98175,16.79124l0.95972,0.17621l0.51033,-0.7856c1.79758,-2.78997 3.93029,-5.81489 6.52764,-9.24362l1.3101,-1.73272l-2.28505,-0.30837a152.33694,146.84072 0 0 1 -45.76963,-12.41538a101.12888,97.48021 0 0 0 27.99191,-34.7058l-0.00762,0zm46.21141,-48.34731l-0.44939,1.30688a186.61275,179.87988 0 0 1 -25.9963,50.54992l-0.47224,0.61673l0.35037,0.69015a92.28572,88.95611 0 0 1 3.64847,9.9558l0.79977,2.43756l1.65286,-2.03374a165.89493,159.90954 0 0 0 10.50363,-14.61065l0,58.83173l11.95845,0l0,-80.30719c3.63324,-7.52559 6.79423,-14.68407 9.64293,-21.95269l0.47986,-1.21144l-12.1184,-4.27306zm87.85271,24.65456l-16.59711,0l0,-23.31831l-12.09555,0l0,23.31831l-52.51816,0l0,10.73406l52.65526,0l0,50.13876a12.25551,11.81333 0 0 1 -1.52337,7.52559l0,0.04405a7.28932,7.02633 0 0 1 -6.01731,1.6593l-0.06093,0c-3.99123,0 -9.68863,-0.27166 -16.91702,-0.80028l-1.88136,-0.13216l0.41131,1.71804c0.76168,3.06897 1.3101,6.08655 1.83566,9.49325l0.16757,1.09396l4.42539,0.08076c4.15118,0.07342 7.5483,0.13216 10.26751,0.13216c1.43197,0 2.66589,0 3.73225,-0.05874a17.70917,17.07023 0 0 0 13.11621,-4.84574a19.8038,19.08929 0 0 0 4.41777,-13.37719l0,-52.67176l16.58188,0l0,-10.73406zm-194.9075,24.86013l46.09716,0a77.5852,74.78598 0 0 1 -24.02354,27.31237a70.24256,67.70826 0 0 1 -22.07362,-27.31237zm-182.12643,-18.52396l11.08251,0a195.69204,188.63159 0 0 1 -5.94876,33.82476a119.18081,114.88084 0 0 1 -5.13376,-33.82476zm24.78522,125.79844a7.75395,7.47419 0 0 1 6.09348,2.34945a9.83335,9.47857 0 0 1 2.19365,5.7121l-17.77772,0a12.55256,12.09968 0 0 1 3.21431,-5.54324a8.33283,8.03219 0 0 1 6.25343,-2.51832l0.02285,0zm55.19167,-80.21908l44.71089,0l0,15.52107l-44.71089,0l0,-15.52107zm79.76362,95.54191l7.88344,-0.89573l0,2.12919a9.49821,9.15552 0 0 1 -2.63543,6.71062a8.94218,8.61955 0 0 1 -6.70282,2.65047a6.21535,5.9911 0 0 1 -4.44824,-1.35093a4.80623,4.63283 0 0 1 -1.59192,-3.47278a4.92048,4.74295 0 0 1 1.38627,-3.8252a11.61569,11.1966 0 0 1 6.09348,-1.94564l0.01523,0zm104.89922,-19.94831a8.91933,8.59752 0 0 1 -2.95534,7.01164a14.12164,13.61214 0 0 1 -9.23924,2.47427l-5.33179,0l0,-18.35509l6.04778,0c7.81489,0.03671 11.46335,2.84137 11.46335,8.86918l0.01523,0zm28.89832,19.94831l7.88344,-0.89573l0,2.12919a9.49821,9.15552 0 0 1 -2.63543,6.71062a8.94218,8.61955 0 0 1 -6.70282,2.65047a6.21535,5.9911 0 0 1 -4.44824,-1.35093a4.80623,4.63283 0 0 1 -1.59192,-3.47278a4.92048,4.74295 0 0 1 1.38627,-3.8252a11.61569,11.1966 0 0 1 6.09348,-1.94564l0.01523,0z"/>
 </g>
</svg>