<?xml version="1.0" standalone="no"?><!DOCTYPE svg PUBLIC "-//W3C//DTD SVG 1.1//EN" "http://www.w3.org/Graphics/SVG/1.1/DTD/svg11.dtd"><svg t="1770804240550" class="icon" viewBox="0 0 1126 1024" version="1.1" xmlns="http://www.w3.org/2000/svg" p-id="16431" xmlns:xlink="http://www.w3.org/1999/xlink" width="219.921875" height="200"><path d="M742.323 716.518V454.963c0-10.905-12.825-19.737-24.217-19.763H482.765c-11.392 0-20.634 8.858-20.634 19.763v108.083H280.064V250.163c0-10.905-9.216-19.763-20.634-19.763H20.634C9.216 230.4 0 239.258 0 250.163v754.074C0 1015.194 9.216 1024 20.634 1024h238.848c0.307 0 0.537-0.154 0.819-0.154 0.256 0 0.512 0.154 0.768 0.154h716.723c11.392 0 20.608-8.832 20.608-19.712V736.256c0-10.88-9.216-19.712-20.582-19.738h-235.52zM230.835 973.517H51.2V281.6h179.66v691.917zM281.6 614.4h178.38v358.067H281.6V614.4z m230.4-128h179.2v486.4H512V486.4z m435.968 485.453H742.4V768h205.568v203.853z" fill="#2C2C2C" p-id="16432"></path><path d="M466.1 308.787c6.937 4.25 15.897 4.096 22.706-0.358L648.678 200.37l355.328 282.368-121.267-3.02c-11.213 0-11.213 57.881 0 57.881H1100.8c11.213 0 21.862-5.914 21.862-16.563a18.33 18.33 0 0 0-0.204-2.74l0.204-139.34c4.992-2.15 4.992-19.072 0-50.79-9.804-16.82-19.712-25.217-29.824-25.217-10.086 0-20.275 8.397-30.54 25.216-0.487 43.444-0.487 66.74 0 69.888v56.576L661.99 133.07a21.197 21.197 0 0 0-24.192-0.691l-161.024 108.8L108.211 0.768c-9.446-5.786-22.016 23.475-28.16 32.41a18.714 18.714 0 0 0 6.016 26.7L466.1 308.813z" fill="#0589F3" p-id="16433"></path></svg>