<?xml version="1.0" standalone="no"?><!DOCTYPE svg PUBLIC "-//W3C//DTD SVG 1.1//EN" "http://www.w3.org/Graphics/SVG/1.1/DTD/svg11.dtd"><svg t="1770804271886" class="icon" viewBox="0 0 1024 1024" version="1.1" xmlns="http://www.w3.org/2000/svg" p-id="7744" xmlns:xlink="http://www.w3.org/1999/xlink" width="200" height="200"><path d="M511.280762 547.218286L327.606857 461.409524a21.613714 21.613714 0 0 0-20.833524 1.365333 22.491429 22.491429 0 0 0-10.361904 19.090286V689.737143a22.552381 22.552381 0 0 0 12.848761 20.443428l183.673905 85.808762a21.589333 21.589333 0 0 0 20.845715-1.365333 22.491429 22.491429 0 0 0 10.361904-19.090286V567.661714a22.576762 22.576762 0 0 0-12.860952-20.443428z m-17.615238 215.478857l-166.790095-77.921524V494.713905l166.790095 77.921524z m268.092952-299.873524a21.699048 21.699048 0 0 0-20.931047-1.426286l-185.417143 85.796572a22.576762 22.576762 0 0 0-12.970667 20.48v207.872a22.454857 22.454857 0 0 0 10.337524 19.041524 21.76 21.76 0 0 0 20.918857 1.450666l185.441524-85.820952a22.552381 22.552381 0 0 0 12.970666-20.46781V481.865143a22.454857 22.454857 0 0 0-10.349714-19.041524zM741.632 684.739048l-168.71619 78.067809V572.672l168.71619-78.06781z" fill="#303030" p-id="7745"></path><path d="M533.369905 529.249524a21.504 21.504 0 0 1-7.655619-1.401905l-0.731429-0.316952-188.464762-82.748953a22.052571 22.052571 0 0 1-13.799619-20.358095 22.345143 22.345143 0 0 1 13.824-21.138286l180.857905-81.993143a22.77181 22.77181 0 0 1 17.310476-0.365714l196.144762 80.018286a22.479238 22.479238 0 0 1-0.694857 41.971809l-187.757714 84.601905a26.014476 26.014476 0 0 1-9.033143 1.731048z m-168.569905-105.325714l168.850286 74.142476L702.171429 422.144 526.628571 350.561524z m-15.762286 7.155809l-0.353524 0.158476z m370.310096-1.913905l0.158476 0.060953zM348.001524 416.548571l0.731428 0.329143a6.912 6.912 0 0 0-0.731428-0.329143z m370.663619-1.852952a3.486476 3.486476 0 0 0-0.572953 0.256z" fill="#509AFF" p-id="7746"></path></svg>