<?xml version="1.0" standalone="no"?><!DOCTYPE svg PUBLIC "-//W3C//DTD SVG 1.1//EN" "http://www.w3.org/Graphics/SVG/1.1/DTD/svg11.dtd"><svg t="1770804388412" class="icon" viewBox="0 0 1024 1024" version="1.1" xmlns="http://www.w3.org/2000/svg" p-id="11408" xmlns:xlink="http://www.w3.org/1999/xlink" width="200" height="200"><path d="M832 768v32H672v-32a32.096 32.096 0 0 1 32-32h96a32.096 32.096 0 0 1 32 32zM816 544a64 64 0 0 1-128 0v-64a64 64 0 1 1 128 0zM480 800h-144v-16a64.4 64.4 0 0 0-18.72-45.28A64.768 64.768 0 0 0 272 720h-16v80h-80a64 64 0 0 1-64-64v-86.4a127.616 127.616 0 0 1 84.32-120.16L288 496a48 48 0 0 0 96 0l91.68 33.44A127.616 127.616 0 0 1 560 649.6V800zM512 272v32a32.096 32.096 0 0 1-32 32h-32v-96h32a32.096 32.096 0 0 1 32 32zM448 224a67.936 67.936 0 0 0-48-16c-53.28 0-74.72 32-128 32a67.936 67.936 0 0 1-48-16 112 112 0 1 1 224 0zM224 256v80h-32a32.096 32.096 0 0 1-32-32v-32a32.096 32.096 0 0 1 32-32h32z" fill="#1296db" p-id="11409"></path><path d="M976 784h-128v-16a48.144 48.144 0 0 0-48-48h-32v-32.96A144.256 144.256 0 0 0 896 544h-32a112 112 0 0 1-96 110.72V622.4a80.272 80.272 0 0 0 64-78.4v-64a80 80 0 0 0-160 0v64a80.272 80.272 0 0 0 64 78.4v32.32A112 112 0 0 1 640 544h-32a144.256 144.256 0 0 0 128 143.04V720h-32a48.144 48.144 0 0 0-48 48v16h-80v-134.4a144.16 144.16 0 0 0-94.72-135.2L400 484.8v-38.08A128.448 128.448 0 0 0 462.88 352H480a48.144 48.144 0 0 0 48-48v-80a192 192 0 0 0-384 0v80a48.144 48.144 0 0 0 48 48h17.12A128.448 128.448 0 0 0 272 446.72v38.08l-81.28 29.6A144.16 144.16 0 0 0 96 649.6V736a78.784 78.784 0 0 0 16.48 48H48a16 16 0 0 0-16 16v64a16 16 0 0 0 16 16h32v96a16 16 0 0 0 16 16h832a16 16 0 0 0 16-16v-96h32a16 16 0 0 0 16-16v-64a16 16 0 0 0-16-16zM706.88 560H736v-32h-32v-32h32v-32h-29.12a47.808 47.808 0 0 1 90.24 0H768v32h32v32h-32v32h29.12a47.808 47.808 0 0 1-90.24 0zM688 768a16 16 0 0 1 16-16h96a16 16 0 0 1 16 16v16h-128zM496 304a16 16 0 0 1-16 16h-16v-64h16a16 16 0 0 1 16 16z m-288 16h-16a16 16 0 0 1-16-16v-32a16 16 0 0 1 16-16h16z m0-96h-16a48 48 0 0 0-16 2.88V224a160 160 0 0 1 320 0v2.88a48 48 0 0 0-16-2.88h-16a128 128 0 0 0-256 0z m219.68-28.48A102.304 102.304 0 0 0 400 192a165.792 165.792 0 0 0-70.24 17.28A137.952 137.952 0 0 1 272 224a51.2 51.2 0 0 1-31.52-8 95.92 95.92 0 0 1 187.2-20.48zM240 336v-84.8a96.32 96.32 0 0 0 32 4.8 165.792 165.792 0 0 0 70.24-17.28A137.952 137.952 0 0 1 400 224a51.696 51.696 0 0 1 32 8.16V336a96 96 0 0 1-192 0z m128 123.84V496a32 32 0 0 1-64 0v-36.16a125.152 125.152 0 0 0 64 0zM128 649.6a112.48 112.48 0 0 1 73.76-105.28l74.24-26.88a63.568 63.568 0 0 0 120 0l74.24 26.88A112.48 112.48 0 0 1 544 649.6V784h-48v-144h-32v144h-112a80 80 0 0 0-46.08-72.16l-18.24-91.04-31.36 6.4 15.36 76.8H208v-80h-32v96a16 16 0 0 0 16 16h48v48h-64a48.144 48.144 0 0 1-48-48zM320 784h-48v-48a48.144 48.144 0 0 1 48 48z m592 176H112v-80h800z m48-112H64v-32h896z" fill="#1296db" p-id="11410"></path><path d="M272 272h32v32h-32zM368 272h32v32h-32zM736 304h32v64h-32zM820.688 388.672l48-48 22.64 22.624-48 48zM612.688 363.328l22.624-22.64 48 48-22.624 22.64zM864 448h64v32h-64zM576 448h64v32h-64z" fill="#1296db" p-id="11411"></path></svg>