<?xml version="1.0" standalone="no"?><!DOCTYPE svg PUBLIC "-//W3C//DTD SVG 1.1//EN" "http://www.w3.org/Graphics/SVG/1.1/DTD/svg11.dtd"><svg t="1770801790901" class="icon" viewBox="0 0 1024 1024" version="1.1" xmlns="http://www.w3.org/2000/svg" p-id="13062" xmlns:xlink="http://www.w3.org/1999/xlink" width="200" height="200"><path d="M393.313 676.719c0-172.032 139.5-311.532 311.53-311.532 89.72 0 170.626 37.97 227.438 98.72V191.843c0-37.313-30.468-67.781-67.781-67.781H159.969c-37.313 0-67.781 30.468-67.781 67.78v464.25c0 37.313 30.468 67.782 67.78 67.782h236.907a312.795 312.795 0 0 1-3.563-47.156z m-239.438-402.75v-0.188c0-16.5 13.5-30.094 30.094-30.094h298.875c16.5 0 30.094 13.5 30.094 30.094v0.188c0 16.5-13.5 30.094-30.094 30.094H183.969c-16.5 0-30.094-13.5-30.094-30.094z" fill="#1296DB" p-id="13063"></path><path d="M704.844 440.938c-130.219 0-235.782 105.562-235.782 235.78S574.625 912.5 704.845 912.5s235.781-105.563 235.781-235.781-105.563-235.782-235.781-235.782zM835.25 674.655h-96.375v46.219h44.719c15.468 0 25.781 9.281 25.781 23.156s-10.313 23.157-25.781 23.157h-44.719l-0.563 69.28c0 13.876-16.593 28.97-32.062 28.97S674.094 849.875 674.094 836l-0.469-68.813h-44.719c-15.468 0-25.781-9.28-25.781-23.156s10.313-23.156 25.781-23.156h44.719v-46.219h-96.281c-15.469 0-25.782-9.281-25.782-23.156s10.313-23.156 25.782-23.156h54.937l-46.406-69.375c-10.313-13.875 1.5-32.532 11.813-37.125s25.875 0.187 36.187 14.062l61.875 90.282h27.75l48.281-95.063c5.157-9.281 19.5-17.438 36.094-9.281 10.313 4.593 15.469 18.468 10.313 32.343l-32.813 71.907h49.781c15.469 0 25.407 11.625 25.407 25.5 0.093 9.375-9.844 23.062-25.313 23.062z" fill="#1296DB" p-id="13064"></path></svg>