<?xml version="1.0" standalone="no"?><!DOCTYPE svg PUBLIC "-//W3C//DTD SVG 1.1//EN" "http://www.w3.org/Graphics/SVG/1.1/DTD/svg11.dtd"><svg t="1770719112631" class="icon" viewBox="0 0 1024 1024" version="1.1" xmlns="http://www.w3.org/2000/svg" p-id="7275" xmlns:xlink="http://www.w3.org/1999/xlink" width="200" height="200"><path d="M793.277 330.004L702.761 64.18c-10.517-30.873-44.058-47.375-74.936-36.864l-265.826 90.512-78.243 26.644-42.184 85.75L28.257 663.808a33.004 33.004 0 0 0 15.048 44.18L522.112 943.55a33.014 33.014 0 0 0 44.19-15.042l212.389-431.719 42.178-85.75-27.592-81.034zM526.643 884.46L87.327 668.34l235.73-479.14L645.555 79.385a3.87 3.87 0 0 1 3.093 0.2c1.5 0.737 1.9 1.935 2.032 2.329l110.772 325.289L526.643 884.46z" fill="#1296db" p-id="7276"></path><path d="M596.777 187.361c-27.704-13.64-61.225-2.222-74.865 25.493s-2.222 61.235 25.493 74.87c27.714 13.634 61.235 2.222 74.864-25.493 13.64-27.715 2.228-61.235-25.492-74.87z m-36.342 73.867a26.394 26.394 0 0 1-12.032-35.344 26.399 26.399 0 1 1 12.032 35.344z m-48.46 400.071c10.746 5.29 16.788 16.932 11.883 26.91-4.168 8.46-17.326 11.28-28.073 5.991l-99.22-48.798-28.457 57.84c-4.168 8.479-16.067 11.91-28.703 5.689-11.382-5.602-16.548-17.44-12.38-25.913l28.457-57.84-99.226-48.81c-10.747-5.288-15.908-17.12-11.249-26.588 4.414-8.98 16.697-11.612 27.438-6.318l99.22 48.81 24.536-49.849-99.22-48.82c-10.753-5.283-16.405-16.122-11.25-26.587 4.169-8.484 16.446-11.11 27.193-5.822l84.06 41.35-21.575-174.726c-2.013-10.276 6.44-17.884 20.024-16.778 11.197 1.172 21.734 10.076 23.357 19.538l21.965 175.544 152.08-90.537c8.734-4.992 23.096-2.268 30.126 7.388 9.031 8.776 7.28 20.301-1.46 25.293l0.251-0.496L469.658 538.3l82.795 40.73c10.747 5.279 16.778 16.922 12.124 26.399-4.659 9.492-17.326 11.3-28.073 6.02l-99.22-48.818-24.53 49.848 99.22 48.82z" fill="#1296db" p-id="7277"></path><path d="M909.783 240.22L792.929 123.366l41.713 122.507 80.88 80.88V936.31H577.936l-17.141 34.836a39.916 39.916 0 0 1-53.428 18.192l-157.465-77.471v47.304a34.284 34.284 0 0 0 34.278 34.278h554.194a34.284 34.284 0 0 0 34.279-34.278V303.094l-62.869-62.874z" fill="#1296db" p-id="7278"></path></svg>