<?xml version="1.0" standalone="no"?><!DOCTYPE svg PUBLIC "-//W3C//DTD SVG 1.1//EN" "http://www.w3.org/Graphics/SVG/1.1/DTD/svg11.dtd"><svg t="1770719051112" class="icon" viewBox="0 0 1024 1024" version="1.1" xmlns="http://www.w3.org/2000/svg" p-id="3386" xmlns:xlink="http://www.w3.org/1999/xlink" width="200" height="200"><path d="M768.686787 243.46613l-240.375586-89.167896a52.768165 52.768165 0 0 0-16.940756-3.090543 51.051196 51.051196 0 0 0-17.05522 3.090543l-239.116477 89.167896a49.563157 49.563157 0 0 0-31.935614 45.785826v255.48491c0 166.317013 225.838587 330.230271 288.679634 330.23027s288.794098-163.913257 288.794098-330.23027V289.709814a49.448692 49.448692 0 0 0-32.050079-46.243684z" fill="#E9F1FF" p-id="3387"></path><path d="M511.942768 1024C397.020344 1024 90.25531 793.926224 90.25531 550.917952V237.170579a127.971384 127.971384 0 0 1 82.643416-119.501006L467.988375 7.898055a125.911022 125.911022 0 0 1 87.679857 0l295.204113 109.771518a127.971384 127.971384 0 0 1 82.757881 119.501006v313.747373c0 243.122736-306.879499 473.082048-421.687458 473.082048z m0-957.267159a59.979432 59.979432 0 0 0-21.06148 3.777331L195.906103 180.28169a61.124078 61.124078 0 0 0-39.490275 57.232283v313.403979c0 204.662643 278.148893 406.463671 355.412475 406.463671S867.240778 755.46613 867.240778 550.917952V237.170579a60.780684 60.780684 0 0 0-39.37581-57.232283L532.660854 70.510172a58.834786 58.834786 0 0 0-20.832551-3.777331z" fill="#2C5CCB" p-id="3388"></path><path d="M506.791862 641.001565a33.423653 33.423653 0 0 1-33.423653-33.423653V336.98368a33.423653 33.423653 0 1 1 66.847306 0v270.937626A33.423653 33.423653 0 0 1 506.791862 641.001565z" fill="#2C5CCB" p-id="3389"></path><path d="M642.317907 505.818913H371.380282a33.423653 33.423653 0 0 1 0-66.847306h270.937625a33.423653 33.423653 0 0 1 0 66.847306z" fill="#2C5CCB" p-id="3390"></path></svg>