<?xml version="1.0" standalone="no"?><!DOCTYPE svg PUBLIC "-//W3C//DTD SVG 1.1//EN" "http://www.w3.org/Graphics/SVG/1.1/DTD/svg11.dtd"><svg t="1770719134843" class="icon" viewBox="0 0 1024 1024" version="1.1" xmlns="http://www.w3.org/2000/svg" p-id="9725" xmlns:xlink="http://www.w3.org/1999/xlink" width="200" height="200"><path d="M516.608 991.232c-20.992 0-41.984-5.632-60.928-16.384l-312.32-178.688a122.0096 122.0096 0 0 1-61.952-106.496V334.336c0-44.032 23.552-84.992 61.952-106.496S455.68 49.152 455.68 49.152c37.376-21.504 84.48-21.504 121.856 0l312.32 178.688c38.4 22.016 61.952 62.976 61.952 106.496v355.328c0 44.032-23.552 84.992-61.952 106.496l-312.32 178.688c-18.944 10.752-39.936 16.384-60.928 16.384zM183.808 298.496c-12.8 7.168-20.48 20.992-20.48 35.328v355.328c0 14.848 7.68 28.16 20.48 35.328l312.32 178.688c12.8 7.168 28.16 7.168 40.448 0l312.32-178.688c12.8-7.168 20.48-20.992 20.48-35.328V333.824c0-14.848-7.68-28.16-20.48-35.328l-312.32-178.176a40.704 40.704 0 0 0-40.448 0l-312.32 178.176z" fill="#1296db" opacity=".5" p-id="9726"></path><path d="M518.144 770.56c-14.848 0-29.696-3.584-42.496-11.264l-153.6-86.528c-27.136-15.36-44.544-44.544-44.544-75.776V426.496c0-31.232 16.896-60.416 44.544-75.776l153.6-86.528c26.112-14.848 58.88-14.848 85.504 0l153.6 86.528c27.648 15.36 44.544 44.544 44.544 75.776v170.496c0 31.232-16.896 60.416-44.544 75.776l-153.6 86.528c-13.312 7.168-28.16 11.264-42.496 11.264zM356.864 413.184c-4.608 2.56-7.68 7.68-7.68 13.312v170.496c0 5.632 3.072 10.752 7.68 13.312l153.6 86.528c4.608 2.56 10.24 2.56 14.848 0l153.6-86.528c4.608-2.56 7.68-7.68 7.68-13.312V426.496c0-5.632-3.072-10.752-7.68-13.312l-153.6-86.528a15.36 15.36 0 0 0-14.848 0l-153.6 86.528z" fill="#1296db" p-id="9727"></path><path d="M481.28 542.208l1.536 175.616h61.44l-1.536-176.128c0-1.024 0-2.048 0.512-2.56a6.144 6.144 0 0 1 2.56-2.56l179.2-102.912-30.72-53.248-178.688 102.912-175.616-102.912-31.232 53.248 172.544 100.864v8.192z" fill="#1296db" p-id="9728"></path></svg>