<?xml version="1.0" standalone="no"?><!DOCTYPE svg PUBLIC "-//W3C//DTD SVG 1.1//EN" "http://www.w3.org/Graphics/SVG/1.1/DTD/svg11.dtd"><svg t="1770719166226" class="icon" viewBox="0 0 1024 1024" version="1.1" xmlns="http://www.w3.org/2000/svg" p-id="11061" xmlns:xlink="http://www.w3.org/1999/xlink" width="200" height="200"><path d="M136.533333 512c0 206.506667 167.253333 375.466667 375.466667 375.466667s375.466667-167.253333 375.466667-375.466667c0-206.506667-167.253333-375.466667-375.466667-375.466667C305.493333 136.533333 136.533333 303.786667 136.533333 512z" fill="#2447F8" opacity=".8" p-id="11062"></path><path d="M232.106667 512c0 155.306667 124.586667 279.893333 279.893333 279.893333S791.893333 667.306667 791.893333 512c0-155.306667-124.586667-279.893333-279.893333-279.893333-155.306667 0-279.893333 124.586667-279.893333 279.893333z" fill="#60D0FE" opacity=".8" p-id="11063"></path><path d="M631.466667 757.76c0 71.68 58.026667 129.706667 129.706666 129.706667s129.706667-58.026667 129.706667-129.706667c0-71.68-58.026667-129.706667-129.706667-129.706667S631.466667 686.08 631.466667 757.76z" fill="#2447F8" opacity=".8" p-id="11064"></path><path d="M757.76 276.48l-83.626667 95.573333h44.373334v155.306667h78.506666v-155.306667h46.08l-85.333333-95.573333zM266.24 749.226667l83.626667-95.573334h-44.373334v-155.306666h-80.213333v155.306666h-44.373333l85.333333 95.573334z" fill="#FFFFFF" opacity=".8" p-id="11065"></path><path d="M138.24 264.533333c0 69.973333 56.32 128 128 128s128-56.32 128-128c0-69.973333-56.32-128-128-128s-128 58.026667-128 128z" fill="#2447F8" opacity=".8" p-id="11066"></path><path d="M204.8 264.533333c0 32.426667 27.306667 59.733333 59.733333 59.733334s59.733333-27.306667 59.733334-59.733334-27.306667-59.733333-59.733334-59.733333-59.733333 27.306667-59.733333 59.733333z" fill="#FFFFFF" opacity=".8" p-id="11067"></path><path d="M628.053333 327.68h-63.146666l-58.026667 121.173333-58.026667-121.173333h-63.146666l71.68 150.186667h-66.56v52.906666h88.746666v35.84h-88.746666v52.906667h88.746666v71.68h54.613334v-71.68h88.746666v-52.906667h-88.746666v-35.84h88.746666V477.866667h-66.56z" fill="#FFFFFF" p-id="11068"></path></svg>