<?xml version="1.0" standalone="no"?><!DOCTYPE svg PUBLIC "-//W3C//DTD SVG 1.1//EN" "http://www.w3.org/Graphics/SVG/1.1/DTD/svg11.dtd"><svg t="1770719124522" class="icon" viewBox="0 0 1024 1024" version="1.1" xmlns="http://www.w3.org/2000/svg" p-id="8570" xmlns:xlink="http://www.w3.org/1999/xlink" width="200" height="200"><path d="M540.444444 455.111111h256a85.333333 85.333333 0 0 1 85.333334 85.333333v113.777778h56.888889a56.888889 56.888889 0 0 1 56.888889 56.888889v142.222222a56.888889 56.888889 0 0 1-56.888889 56.888889h-170.666667a56.888889 56.888889 0 0 1-56.888889-56.888889v-142.222222a56.888889 56.888889 0 0 1 56.888889-56.888889h56.888889v-113.777778a28.444444 28.444444 0 0 0-28.444445-28.444444h-256v142.222222h56.888889a56.888889 56.888889 0 0 1 56.888889 56.888889v142.222222a56.888889 56.888889 0 0 1-56.888889 56.888889h-170.666666a56.888889 56.888889 0 0 1-56.888889-56.888889v-142.222222a56.888889 56.888889 0 0 1 56.888889-56.888889h56.888889v-142.222222H227.555556a28.444444 28.444444 0 0 0-28.444445 28.444444v113.777778h56.888889a56.888889 56.888889 0 0 1 56.888889 56.888889v142.222222a56.888889 56.888889 0 0 1-56.888889 56.888889H85.333333a56.888889 56.888889 0 0 1-56.888889-56.888889v-142.222222a56.888889 56.888889 0 0 1 56.888889-56.888889h56.888889v-113.777778a85.333333 85.333333 0 0 1 85.333334-85.333333h256v-113.777778h-56.888889a56.888889 56.888889 0 0 1-56.888889-56.888889V142.222222a56.888889 56.888889 0 0 1 56.888889-56.888889h170.666666a56.888889 56.888889 0 0 1 56.888889 56.888889v142.222222a56.888889 56.888889 0 0 1-56.888889 56.888889h-56.888889v113.777778zM426.666667 142.222222v142.222222h170.666666V142.222222h-170.666666zM85.333333 711.111111v142.222222h170.666667v-142.222222H85.333333z m341.333334 0v142.222222h170.666666v-142.222222h-170.666666z m341.333333 0v142.222222h170.666667v-142.222222h-170.666667z" fill="#1296db" p-id="8571"></path></svg>