<?xml version="1.0" standalone="no"?><!DOCTYPE svg PUBLIC "-//W3C//DTD SVG 1.1//EN" "http://www.w3.org/Graphics/SVG/1.1/DTD/svg11.dtd"><svg t="1770801545109" class="icon" viewBox="0 0 1024 1024" version="1.1" xmlns="http://www.w3.org/2000/svg" p-id="2862" xmlns:xlink="http://www.w3.org/1999/xlink" width="200" height="200"><path d="M816.493714 922.331429c-34.742857 27.428571-73.472 49.298286-114.761143 64.768a520.557714 520.557714 0 0 1-432.64-21.796572c-7.789714-3.876571-16.64-6.948571-21.467428-14.994286l-1.718857-3.510857 23.405714 5.851429c31.341714 8.411429 62.171429 18.651429 94.281143 24.795428a712.411429 712.411429 0 0 0 435.931428-52.662857c4.717714-2.121143 8.777143-7.350857 16.969143-2.450285z m150.491429-191.049143l1.097143 0.914285a265.252571 265.252571 0 0 1-118.125715 142.555429 663.917714 663.917714 0 0 1-232.411428 71.826286c-31.597714 5.449143-63.524571 8.704-95.561143 9.837714a130.56 130.56 0 0 1-37.083429-4.900571c-18.176-5.376-34.377143-14.153143-35.913142-35.620572a45.092571 45.092571 0 0 1 31.378285-46.043428 142.811429 142.811429 0 0 1 66.925715-9.216 653.531429 653.531429 0 0 0 256.329142-37.741715 497.810286 497.810286 0 0 0 153.088-86.235428c3.181714-2.194286 6.656-4.022857 10.276572-5.376zM37.924571 693.357714c63.268571 78.592 151.405714 112.347429 243.748572 138.130286a228.937143 228.937143 0 0 1 73.289143 30.72c3.291429 2.011429 6.473143 4.315429 9.398857 6.875429 14.372571 14.116571 24.868571 30.72 15.908571 50.944-8.923429 20.260571-30.281143 22.418286-48.932571 19.492571a352.146286 352.146286 0 0 1-130.925714-49.408c-65.28-39.606857-121.161143-87.954286-151.442286-161.133714a78.994286 78.994286 0 0 1-11.044572-35.620572z m-27.099428-289.133714c33.462857 98.377143 105.984 150.418286 195.766857 184.173714a715.812571 715.812571 0 0 0 246.820571 42.496c60.342857-1.865143 120.758857 1.133714 180.626286 9.069715 30.281143 5.522286 43.739429 17.810286 49.225143 48.786285a62.902857 62.902857 0 0 1-23.771429 67.547429c-26.660571 18.651429-57.782857 29.622857-90.112 31.744a745.435429 745.435429 0 0 1-432.457142-83.163429 289.499429 289.499429 0 0 1-124.452572-122.770285c-15.140571-28.379429-13.019429-60.342857-11.190857-91.172572 1.828571-30.829714 6.363429-57.856 9.508571-86.674286z m1000.521143 18.285714c27.721143 119.222857 13.933714 168.813714-82.505143 248.32a354.816 354.816 0 0 1-100.096 61.366857c-20.260571 7.350857-41.472 14.409143-59.355429-3.364571a67.693714 67.693714 0 0 1-16.054857-64c9.874286-50.029714 45.458286-75.702857 89.490286-92.086857a300.032 300.032 0 0 0 148.992-112.347429c6.948571-11.337143 12.434286-24.393143 19.529143-37.888zM889.051429 166.034286c91.794286 87.771429 105.984 200.777143 0 281.965714-72.96 55.698286-157.769143 83.309714-247.405715 97.572571-129.170286 20.736-256.036571 5.522286-382.025143-24.685714a150.345143 150.345143 0 0 1-62.683428-26.697143c-28.16-22.747429-36.790857-46.08-27.721143-76.763428 7.606857-32.877714 35.474286-56.868571 68.754286-59.062857 34.962286-3.254857 68.278857 6.875429 102.363428 11.958857 124.452571 18.578286 249.234286 30.72 373.248-2.596572 54.491429-14.628571 104.777143-38.217143 139.739429-86.564571 23.405714-33.645714 35.913143-73.910857 35.730286-115.126857zM136.777143 161.755429l1.097143 1.536a163.913143 163.913143 0 0 0 20.699428 107.410285c11.337143 18.578286 6.692571 39.460571 0 59.867429a166.948571 166.948571 0 0 1-41.618285 62.756571 30.098286 30.098286 0 0 1-52.553143-7.68 115.053714 115.053714 0 0 1-9.069715-105.398857 368.420571 368.420571 0 0 1 81.444572-118.491428zM640.841143 17.188571c63.451429 10.752 121.124571 33.609143 156.891428 89.782858 20.845714 32.219429 12.251429 72.411429-19.565714 106.349714a309.869714 309.869714 0 0 1-206.372571 97.133714c-24.356571 1.536-48.786286 1.536-73.142857 0-22.528-1.097143-44.178286-7.350857-55.222858-29.915428-11.081143-22.564571-1.828571-42.971429 10.24-62.610286 22.308571-36.059429 58.038857-42.532571 95.561143-46.08a245.869714 245.869714 0 0 0 109.494857-38.765714c22.418286-14.628571 42.057143-32.731429 39.204572-62.939429-2.889143-27.794286-25.892571-37.778286-47.396572-48.201143l-9.691428-4.754286zM461.897143 0c4.864 1.389714 11.081143 0 14.262857 5.376a246.162286 246.162286 0 0 0-107.52 38.363429 51.382857 51.382857 0 0 0-9.398857 79.030857c11.117714 11.154286 23.844571 20.589714 37.705143 27.940571 23.917714 11.556571 34.523429 40.265143 23.917714 64.914286a151.625143 151.625143 0 0 1-45.421714 65.682286 53.028571 53.028571 0 0 1-53.76 8.886857 180.443429 180.443429 0 0 1-117.174857-110.957715c-12.873143-34.523429 2.267429-72.265143 31.488-97.609142C288.548571 35.620571 353.462857 20.260571 418.450286 4.900571c14.043429-3.072 29.037714-3.657143 43.410285-4.900571z" fill="#1296db" p-id="2863"></path></svg>