<?xml version="1.0" standalone="no"?><!DOCTYPE svg PUBLIC "-//W3C//DTD SVG 1.1//EN" "http://www.w3.org/Graphics/SVG/1.1/DTD/svg11.dtd"><svg t="1770801528295" class="icon" viewBox="0 0 1024 1024" version="1.1" xmlns="http://www.w3.org/2000/svg" p-id="1663" xmlns:xlink="http://www.w3.org/1999/xlink" width="200" height="200"><path d="M76.176 522.528c-25.92-1.904-45.904-24.352-44.064-50.464 2.256-25.92 24.608-45.968 51.136-43.648 25.856 1.568 45.6 24.24 43.808 50.448-1.728 24.448-22.624 43.856-47.36 43.856C78.752 522.72 77.696 522.72 76.176 522.528M46.272 472.896c-1.04 18.464 12.656 33.872 30.976 35.456l2.448 0c17.632 0 31.952-13.632 33.2-30.64 1.056-18.368-12.576-34.096-30.832-35.264L79.696 442.448C62.336 442.464 47.904 456 46.272 472.896" fill="#1296db" p-id="1664"></path><path d="M277.104 141.344c-5.824-11.328-6.768-24.128-2.464-36.08 3.872-12.064 12.592-21.408 23.872-27.296 6.72-3.248 13.536-4.72 20.832-4.72 18.304 0 34.464 10.592 42.704 27.072 11.168 23.376 1.68 52.016-22.08 63.456-6.24 2.944-13.376 4.416-20.32 4.416C301.28 168.208 284.704 157.92 277.104 141.344M304.8 91.088C296.976 94.864 290.96 101.376 288 109.984c-2.88 8.384-1.984 17.2 1.776 25.376 7.664 15.952 27.856 23.296 44.224 15.52 16.224-8.08 23.248-28 15.12-44.576-5.568-11.44-17.04-18.88-29.792-18.88C314.192 87.424 309.36 88.576 304.8 91.088" fill="#1296db" p-id="1665"></path><path d="M651.12 911.296c-11.328-23.712-1.472-52.032 21.696-63.472 6.512-3.04 13.536-4.72 20.896-4.72 18.24 0 34.608 10.08 42.704 26.768 5.328 11.424 6.176 24.24 2.08 36.08-3.984 12.064-12.48 21.712-24.016 27.296-6.288 3.136-13.216 4.72-20.768 4.72C675.552 937.936 659.488 927.648 651.12 911.296M679.008 860.512c-16.256 8.08-23.072 28.224-15.008 44.496 7.888 15.728 27.808 23.392 44.384 15.52 7.552-4 13.632-10.704 16.576-19.2 2.848-8.608 2.32-17.104-1.344-25.392-5.984-11.536-17.216-18.768-29.904-18.768C688.768 857.152 683.728 858.72 679.008 860.512" fill="#1296db" p-id="1666"></path><path d="M719.728 190.56c-21.728-14.608-27.488-44.176-12.912-65.904 14.592-20.768 45.216-27.28 66-12.592 21.504 14.592 27.168 43.872 12.688 65.376-8.928 13.52-23.712 21.088-39.552 21.088C736.512 198.528 727.488 195.792 719.728 190.56M718.992 132.432c-10.288 15.424-6.4 36.416 8.496 46.48 15.008 9.552 36.192 5.456 45.968-9.216 10.592-15.328 6.384-35.792-8.704-45.968-5.552-4.064-11.968-5.664-18.048-5.664C735.456 118.064 724.96 123.312 718.992 132.432" fill="#1296db" p-id="1667"></path><path d="M240.176 899.424c-10.384-7.136-17.264-17.632-20-30-2.464-12.272 0.416-24.976 7.488-35.68 14.224-20.864 45.008-27.376 65.744-13.12 21.76 14.896 27.488 44.288 12.368 65.584-8.608 13.216-23.344 21.408-38.928 21.408C257.36 907.616 248.4 905.008 240.176 899.424M239.696 841.632c-5.248 7.232-7.04 16.16-5.392 24.976 1.632 8.608 6.672 16.16 14.112 20.992 14.576 9.872 35.984 5.456 45.904-8.816 10.016-15.312 6.352-35.68-8.768-46.064-5.664-3.968-11.856-5.76-18.464-5.76C256.064 826.944 245.776 832.08 239.696 841.632" fill="#1296db" p-id="1668"></path><path d="M929.984 583.008c-26.016-1.904-45.84-24.336-43.856-50.416 1.792-25.824 24.56-45.744 50.576-43.648 25.904 1.472 45.84 24.336 44.176 50.448-2 24.496-22.88 43.808-47.232 43.808C932.288 583.216 931.328 583.216 929.984 583.008M900.288 533.856c-1.472 17.776 12.272 33.824 30.736 35.088l2.624 0c16.912 0 31.904-13.648 32.96-30.48 1.264-18.144-12.592-34-31.056-35.36L933.12 503.104C916 503.104 901.552 516.336 900.288 533.856" fill="#1296db" p-id="1669"></path><path d="M672.816 860.304c-4.72-2.512-13.12-3.152-17.104-3.568-22.56-1.792-54.256-10.912-72.288-31.888-8.176-9.664-12.496-20.992-12.272-33.264-7.248 5.04-18.128 6.08-29.824 3.36-9.136-2.416-21.152-10.704-29.072-24.96-5.328-10.192-10.496-26.56-3.136-48.592 12.064-35.872 9.168-45.728 3.088-57.376-2.72-5.872-9.856-11.76-16.672-12.592-6.544 0-13.488 5.248-17.04 10.288-7.552 10.912-11.968 19.936-5.152 57.296 4.144 22.768-2.928 38.288-10.112 47.328-9.664 12.896-22.736 19.712-31.696 20.56-12.592 1.584-22.88-1.472-29.12-7.344-5.28 39.024-52.4 55.296-93.216 52.352l-5.504 0c-4.72 0-8.768 0.224-11.808 1.472l-9.28 3.152-0.368-9.552c0-4.624-2.768-11.984-5.184-16.576-9.92-20.88-17.632-52.672-8.4-78.256 4.192-12.496 11.536-21.52 22.448-27.712-6.704-3.152-13.536-10.8-17.728-24.24-2.416-8.608-1.04-23.504 7.344-37.36 5.92-9.744 17.776-22.24 40.24-26.864 36.944-7.552 44.016-15.008 51.408-26.336 3.392-5.232 5.568-14.464 2.992-20.128-3.2-5.568-11.392-9.856-17.792-10.384-13.92-0.736-23.856 0.528-52.304 24.752-12.064 9.76-25.504 15.088-39.456 15.088-18.992 0-34.256-9.328-40.288-17.84-8.288-11.328-9.808-21.488-8.4-28.64-6.128 2.72-12.336 3.664-18.56 3.664-31.008 0-59.168-29.008-73.344-57.968-2.512-4.832-6.304-11.328-9.648-14.272l-7.808-6.496 8.8-5.344c3.52-1.68 8.352-7.984 11.6-12.704 16-23.712 44.688-47.84 73.6-47.84 8.96 0 17.36 2.512 24.864 7.136-0.48-7.344 2.624-17.424 12.416-27.696 5.888-6.192 18.8-12.272 34.32-12.272 11.696 0 29.36 3.456 44.688 21.296 25.232 28.448 35.104 30.64 49.84 31.264 6.08 0 14.288-2.32 17.472-7.344 3.84-5.456 2.944-14.688 0.096-20.56-5.568-11.856-11.648-20.352-47.152-32.832-21.584-7.888-31.488-22.464-36.32-32.656-6.304-14.784-5.312-29.664-1.312-37.76 5.552-12.8 13.488-19.312 20.832-21.712-9.936-7.568-16.16-17.632-18.8-30.528-5.248-26.864 6.576-56.88 19.632-76.384 3.152-4.416 7.024-11.024 7.76-15.52l1.68-9.552 8.688 4.496c3.888 2.016 11.456 3.472 17.056 3.472 22.192 2 54.08 11.008 72.08 32 8.336 9.888 12.592 20.768 12.592 33.264 6.976-5.136 17.792-6.08 29.728-2.72 8.72 2.112 21.056 10.368 28.544 24.128 5.68 10.4 10.608 27.072 3.264 48.688-12.064 35.776-9.12 45.632-2.944 57.904 2.64 5.456 9.936 11.856 16.784 12.496 6.4 0 13.536-5.136 16.944-9.968 7.504-11.328 12.016-20.784 5.264-58.016-4.272-22.16 3.2-38.192 9.856-47.232 9.632-12.688 23.04-19.504 31.856-20.352 12.816-1.264 22.88 1.488 29.296 7.136 5.136-39.024 52.992-55.184 93.056-52.448l5.456 0c5.024 0 9.136-0.336 11.648-1.056l9.232-3.568 0.416 9.872c0.528 4.192 2.848 11.328 5.248 16.464 10.384 21.2 17.728 52.672 8.8 78.368-4.4 12.272-11.952 21.504-22.864 27.392 6.816 3.568 13.968 11.12 17.632 24.336 2.304 8.704 1.264 23.92-7.008 37.136-5.888 10.192-17.824 22.768-40.192 27.072-37.248 7.744-43.968 15.328-51.616 26.208-3.472 5.264-5.456 14.496-2.736 20.144 2.736 6.096 11.12 9.984 17.728 10.192 13.536 1.152 23.712-0.208 52.592-24.24 11.424-9.984 25.28-15.424 39.104-15.424 18.688 0 34 9.328 40.512 17.84 7.344 10.064 10.176 20.448 8.496 28.976 5.568-2.528 12.064-3.776 18.464-3.776 30.848 0 59.072 29.056 73.232 58.112 2.512 5.04 6.064 11.232 9.76 14.48l7.344 6.08-8.512 5.04c-4 3.136-9.12 9.424-11.648 13.36-15.632 23.296-45.104 47.424-73.648 47.424-8.944 0-17.328-2.416-24.672-6.928 0.096 7.136-2.624 17.504-12.608 27.392-5.968 6.512-19.088 12.912-34.304 12.912-11.952 0-29.488-4.208-44.896-21.632-25.184-28.416-35.04-31.056-49.52-31.68-6.192 0-14.064 2.528-17.728 7.744-3.584 5.472-2.736 14.592 0 20.368 5.552 11.952 11.632 20.464 47.312 33.36 21.312 7.12 31.056 21.728 35.888 32.512 6.384 14.384 5.136 29.28 1.776 37.472-5.776 12.576-13.84 19.408-21.088 21.376 9.872 7.568 16.16 18.064 18.784 30.544 5.152 27.28-6.608 57.088-19.712 76.592-2.416 3.68-6.64 11.024-7.584 15.328l-1.664 9.856L672.816 860.304zM647.536 565.584c18.88 1.264 31.792 6.816 57.92 36.208 12.176 13.744 25.168 16.688 34.304 16.688 11.536 0 20.88-5.152 24.24-8.208 8.176-8.48 8.816-15.824 7.984-17.936-1.152-3.664-0.848-7.968 1.472-11.552 3.872-5.248 11.328-6.4 17.616-2.192 6.208 4.416 12.8 7.12 20.272 7.12 23.392 0 48.56-21.824 61.888-41.696 0.64-0.64 4.416-6.608 9.44-11.648-3.664-5.024-6.4-10.368-7.44-12.688-11.856-24.112-35.888-49.952-60.432-49.952-5.664 0-11.008 0.944-16.048 3.456-6.832 3.584-13.424 1.792-16.688-3.456-2.208-3.984-2.528-8.384-0.512-12.064 1.04-2.512 1.456-9.664-5.568-19.088-3.664-5.024-14.8-12.176-28.656-12.176-10.688 0-20.864 3.888-30.112 12.176-27.696 23.296-42.704 29.28-62.736 27.6-10.384-0.736-24.128-6.832-29.168-18.16-5.456-11.76-2.096-25.904 3.456-34.416 10.384-15.408 21.936-24.432 60.752-31.888 16.992-3.984 26.224-13.536 30.976-20.88 6.288-10.384 6.688-21.088 5.328-25.808-3.36-11.424-8.912-15.424-11.44-15.856-5.024-1.04-9.424-5.328-9.856-10.912-0.832-4.816 1.984-9.744 7.76-12.592 9.04-4.096 15.216-11.008 18.992-21.088 7.344-21.808 0.432-49.52-7.872-67.456-1.68-2.624-4.192-8.064-5.76-14.144-4.736 0.928-12.176 0.928-15.008 0.512-33.888-2.096-76.16 11.008-77.952 43.232-0.96 14.992-17.536 14.48-22.368 6.496-1.456-2.208-7.44-5.76-19.296-4.72-4.72 0.736-14.256 4.72-22.032 14.784-5.008 6.944-10.624 19.2-7.312 36.416 7.104 39.136 3.408 52.352-7.088 67.888-5.824 8.192-16.784 16.464-30.432 16.464-12.864-0.624-23.552-11.008-27.904-20.128-8.656-17.104-10.176-30.848 2.416-68.624 5.328-16.8 1.632-29.6-2.416-37.456-6.032-10.384-15.104-16.16-19.728-17.216-9.808-2.416-17.68-0.528-19.504 1.792-4.72 5.328-13.584 5.552-18.368 0.72-1.472-1.776-3.408-4.944-3.104-10.8 1.232-9.856-1.984-18.576-8.752-26.752-15.008-17.424-43.232-25.184-62.48-26.448-2.352-0.416-8.384-0.944-14.784-2.512-2.256 5.568-5.408 10.496-7.36 12.912-10.736 16.256-21.872 42.8-17.264 65.568 2 10.288 7.2 18.464 15.856 23.824 5.184 3.568 7.248 8.384 5.664 13.648-1.056 4.928-5.664 9.008-11.28 9.008-2.352 0.32-8.656 3.264-13.536 14.288-2 4.4-2.992 14.992 1.776 26.416 3.312 7.776 10.976 18.688 27.904 24.752 37.2 13.12 47.104 23.104 55.088 40.4 4.4 9.248 5.712 23.712-0.992 34.32-6.992 10.304-20.256 14.048-29.488 14.048l-2.192 0c-18.528-1.136-32-7.008-57.984-36.304-12.288-13.856-25.504-16.672-34.352-16.672-12.064 0-20.672 4.928-24.144 7.984-8.272 8.928-9.008 15.728-7.968 18.144 1.168 3.344 0.64 8.288-1.568 11.328-4.096 5.344-11.184 6.832-18 2.112-5.984-3.984-12.736-6.32-19.92-6.32-23.152 0-48.528 21.216-62.064 41.136-1.36 1.776-4.832 6.928-9.392 11.648 3.984 5.04 6.352 10.384 7.808 12.8 11.616 24.336 35.792 50.368 60.448 50.368 5.504 0 10.688-1.568 15.888-4.208 6.608-3.264 13.488-1.568 16.848 4.208 2.208 3.344 2.208 8.336 0.256 12.016-1.152 2.08-1.776 9.008 5.408 18.56 3.712 5.04 15.104 11.984 28.848 11.984 10.848 0 20.816-3.792 29.904-11.984 27.904-23.232 42.704-29.232 63.056-27.52 9.968 0.72 23.6 6.544 29.28 17.984 5.504 11.328 1.888 25.92-3.712 34.416-10.496 15.84-21.712 24.544-60.704 32.32-17.36 3.456-26.112 13.008-30.688 20.464-6.448 10.592-6.864 21.296-5.712 25.808 3.36 11.968 9.072 15.744 11.744 15.936 4.928 0.944 9.248 5.776 9.76 10.608 0.592 5.344-2.304 10.384-7.92 12.8-8.928 4.208-15.28 11.44-18.72 21.2-7.776 21.616-0.528 49.936 8.016 67.248 0.992 2.944 3.616 8.288 5.248 14.272 4.976-0.736 12.496-0.32 14.848-0.32 34 2.416 76.224-11.008 78.272-42.8 0.896-15.744 17.408-14.912 22.4-7.136 1.248 2.112 7.648 6.096 18.928 4.832 4.928-0.528 14.48-4.832 22.016-14.784 5.312-6.944 10.496-18.896 7.456-36.096-7.088-39.248-3.344-52.88 7.552-68.304 5.568-8.176 16.688-16.256 28.704-16.256l1.776 0c12.752 0.944 23.44 11.104 27.68 20.144 8.56 17.392 10.384 30.944-2.352 68.704-5.488 17.104-1.888 29.376 2.352 37.04 5.888 10.816 14.816 16.368 19.472 17.84 10.016 2.512 17.76 0 19.856-2.096 4.416-5.456 13.536-5.776 18.16-0.848 1.584 2.304 3.456 5.44 2.928 10.8-1.04 9.856 2.112 18.672 8.928 26.944 14.688 17.12 42.8 25.216 62.336 26.448 1.664 0.224 7.968 0.848 15.088 2.528 2.528-6.512 6.096-11.856 7.024-13.216 11.024-15.76 22.256-42.704 17.424-65.472-2.192-10.288-7.12-18.048-15.648-23.712-5.232-3.36-7.536-8.496-6.08-14.064 1.36-4.832 6.08-8.704 11.136-8.704 2.816 0 8.8-3.168 13.84-14.064 2.192-4.32 3.136-15.008-1.776-26.448-3.472-7.872-11.024-19.2-27.504-24.752-37.76-13.104-47.52-23.2-55.488-40.192-4.624-9.552-5.984-24.56 0.944-34.624 7.344-10.496 20.352-13.968 29.696-13.968L647.536 565.568zM578.912 722.752c-1.568-3.456-2.608-6.704-3.04-9.12l-0.608 0.208c-2.544 1.584-5.36 2.208-8.08 2.208-6.832 0-16.496-3.776-25.12-20.672-6.128-12.08-6.512-25.296-6.512-38.832 0-15.216-0.16-30.528-8.288-47.216-5.232-11.232-11.792-17.504-13.84-18.88-3.2-2.304-7.552-4.304-12.448-4.304l-1.824 0c-4.496 0-8.128 0.736-11.536 2.528-2 0.928-9.12 6.4-16.064 16.672-9.952 15.216-12.368 30.416-14.576 45.344-2.368 13.744-4.304 26.544-12.064 37.44-9.904 14.48-19.104 17.424-25.184 17.424-3.728 0-6.624-1.152-11.072-3.68-0.72 2.208-1.824 5.248-4.096 8.72-10.688 15.728-28.496 20.352-43.28 10.496-7.328-5.04-11.52-11.024-12.912-18.464-2.4-10.8 3.168-20.992 6.464-25.808 2.048-3.056 4.4-5.248 6.448-7.232l-0.736-0.32c-2.992-2-16.576-13.328-0.304-38.096 7.136-11.328 18.464-18.144 30.304-25.28 12.976-7.248 26.336-15.424 36.672-30.736 7.184-10.192 9.184-18.768 9.552-21.072 0.624-4.464-0.368-8.976-2.368-12.96-1.824-3.264-4.624-7.248-8.624-10.08-2.016-1.472-10.544-5.248-23.008-5.664-18-1.568-32.576 4.192-47.168 9.232-12.336 5.472-24.544 10.192-37.936 9.248-28.656-2.72-30.096-19.296-30.096-24.976-1.888 0.32-4.352 0.832-7.408 0.832l-1.984 0c-15.056-1.152-32.112-10.064-30.624-32.32 1.04-16.896 13.152-28.016 31.728-28.016 1.008 0 3.296 0.432 3.296 0.432 3.888 0.304 6.88 0.944 9.28 2.08l0-1.136c0.896-9.856 9.344-20.464 32.896-19.104 13.552 0.848 24.992 7.344 37.152 13.744 13.104 7.568 26.544 15.12 44.912 16.368 12.416 1.168 21.184-1.248 22.96-2.72 3.984-1.376 7.616-4.512 10.24-8.288 1.776-2.944 3.984-7.44 4.24-12.704 0-2.208-0.848-11.44-6.304-22.128-8.176-16.688-20.24-26.544-32.096-35.888-10.688-8.288-21.04-16.576-26.272-29.168-12.592-25.808 0.88-35.36 6.24-38.288-1.52-1.68-3.664-4.208-5.36-7.76-2.208-3.984-5.136-12.48-4.096-21.088 1.216-6.832 4.672-15.744 16.416-21.616 16.48-8.08 33.424-1.264 41.664 16.672 1.728 3.376 2.32 6.288 3.056 8.816l0.448-0.416c2.512-1.04 5.456-1.664 8.4-1.664 6.544 0 16.304 3.568 24.976 20.88 6.128 11.968 6.128 25.072 6.224 38.624 0.48 15.2 0.48 30.848 8.4 47.088 5.248 11.44 11.904 17.536 13.632 19.104 3.664 2.416 8.032 3.76 12.592 4.08l2.032 0c4.048 0 8.144-0.624 11.328-2.304 2.16-1.04 9.12-6.4 16.272-17.088 9.968-14.896 12.416-30.64 14.576-45.216 2.416-13.648 4.24-26.24 11.888-37.248 9.952-14.592 19.2-17.312 25.28-17.312 3.472 0 6.912 0.64 11.232 3.456 0.96-2.624 1.664-5.232 3.888-8.304 10.688-16.256 28.416-20.976 43.328-10.688 7.44 4.496 11.744 11.008 12.896 18.24 2.208 11.024-2.944 20.88-6.512 26.032-2.304 3.024-4.512 5.248-6.384 6.608l0.944 0.64c2.72 2.304 16.688 13.008 0 38.384-7.44 11.232-18.368 17.728-30.32 24.672-13.008 7.856-26.432 16.048-36.624 30.848-7.024 10.176-9.232 19.2-9.744 21.312-0.432 4.304 0.72 8.912 2.72 13.216 1.584 2.944 4.208 7.248 8.496 10.064 2.32 1.056 10.384 4.944 22.976 5.664 18.048 1.152 32.64-4.608 47.008-9.76 12.688-5.024 24.752-9.552 38.192-8.592 28.96 2.624 30.112 19.2 29.696 24.976 2.096-0.528 4.624-1.168 7.648-1.168l1.904 0.224c15.312 0.944 32.208 10.064 30.944 32.32-1.152 16.896-13.216 27.424-31.584 27.424l-3.664 0c-3.456-0.224-6.704-1.264-9.12-2.048l0 1.312c-0.736 9.76-9.248 20.656-33.056 18.88-13.536-0.736-24.656-6.912-36.832-13.632-13.104-7.504-26.752-15.04-45.12-16.736-12.368-0.736-21.088 1.68-23.28 2.944-4.944 2.096-7.968 5.664-9.872 8.56-1.984 2.72-4.304 7.44-4.384 12.576 0 2.32 0.928 11.232 6.4 22.464 8.08 16.16 19.92 26.224 32.096 35.664 10.608 8.608 20.768 16.592 26.752 29.088 11.968 26.112-1.776 35.232-6.608 37.664 1.456 2.192 3.664 4.608 5.232 8.064 6.704 13.632 7.344 33.152-12.464 43.136-4.736 2.192-9.264 3.664-13.872 3.664C595.28 743.2 584.576 735.248 578.912 722.752M607.664 525.344c21.392 1.792 37.024 10.608 50.768 18.464 11.232 5.776 20.56 11.376 30.848 11.808 10.912 0.512 17.52-1.568 17.84-7.312 0.416-3.232 0.832-8.912 6.192-12.368 3.568-2.096 8.288-1.568 11.968 0 2.208 0.64 4 1.472 6.512 1.472 0.624 0.208 2.496 0.208 2.496 0.208 11.024 0 16.8-5.024 17.008-14.48 1.36-13.84-10.496-16.896-18.272-17.088-2.4 0-4.08 0.208-5.552 0.72-5.776 1.168-9.232 0.848-12.064-1.872-5.152-3.776-4.32-9.648-4.096-14.464 0.416-4.208-6.384-7.248-17.008-8.512-10.288-0.528-20.032 3.456-31.792 7.968-14.592 5.68-31.888 12.064-53.2 10.496-14.576-1.04-25.184-5.136-29.152-7.552-5.68-3.568-10.608-8.928-13.856-16.048-3.344-6.304-4.816-13.84-4.096-20.768 0.736-5.984 4.304-16.688 11.968-27.584 12.16-17.84 27.6-27.184 41.344-35.36 10.688-6.608 19.92-11.968 25.488-20.336 6.096-8.928 7.664-16.272 2.832-19.632-2.832-1.68-7.664-5.024-7.856-11.008-0.224-5.248 3.552-8.4 6.08-10.496 1.776-1.568 3.264-2.736 5.04-4.944 1.584-2.416 5.136-8.8 4-15.2-0.64-3.584-2.848-6.304-6.848-9.36-3.248-1.552-6.384-2.704-9.104-2.704-7.344 0-12.912 7.344-14.592 9.424-1.152 2.224-2 4.416-2.512 6-1.056 3.568-2.848 7.76-7.664 9.968l-4.096 0.736c-4 0-6.624-2.096-10.496-4.624-0.544-0.32-2.208-0.512-2.208-0.512-1.248 0-6.512 0.512-13.424 10.704-6 8.704-7.472 19.392-9.456 31.568-2.72 16.064-5.344 33.6-17.072 51.424-7.552 11.856-16.368 18.992-21.568 21.616-5.088 2.944-11.12 4-17.84 4l-2.72 0c-7.76-0.32-14.48-3.056-20.4-7.232-3.616-2.416-11.536-10.928-18-24.144-9.344-19.088-9.664-37.024-9.664-53.184-0.256-12.688-0.256-23.184-4.768-32.528-6.016-11.744-11.184-13.008-13.216-13.008 0 0-0.576 0.432-2.048 1.264-3.664 1.568-9.328 3.248-13.792 1.04-4.72-2.512-5.408-7.248-5.872-10.608-0.48-1.872-1.056-4.4-1.792-6.384-1.936-3.68-10.336-15.952-22.864-9.856-5.088 2.304-7.776 5.76-8.56 10.496-0.624 3.888 0.528 8.816 2.592 12.8 1.008 2.528 2.416 4.096 4 5.568 2.304 2.832 5.616 6.496 4.496 11.632-1.04 6.096-6.064 8.496-10.288 10.384-3.856 1.984-3.408 9.552 1.008 19.104 4.336 9.232 12.8 15.936 22.608 24.24 12.272 9.744 26.224 21.088 35.872 40.176 6.56 13.648 7.872 24.24 7.872 28.96-0.528 6.832-2.672 13.744-6.88 20.256-4.304 6.4-9.584 11.008-16.4 13.952-4.464 1.888-15.376 4.512-29.856 3.248-21.248-1.36-36.832-10.288-50.88-17.936-10.704-6-20.528-11.44-30.592-11.856-11.184-0.832-17.664 1.664-18.256 7.44-0.16 3.04-0.464 8.608-5.616 12.064-3.632 2.208-8.768 1.264-12.16-0.208-2-0.304-4-1.136-6.512-1.36l-2.256 0c-10.912 0-17.056 4.928-17.888 14.064-0.688 14.256 10.912 16.88 18.768 17.504 2.32 0 4.208-0.624 5.888-0.944 5.392-0.944 8.976-0.416 11.968 1.68 4.704 4.08 4.24 9.76 3.984 14.368-0.32 4.72 6.464 7.776 16.896 8.912 10.496 0.528 20.368-3.456 31.904-7.984 14.72-5.552 31.568-12.272 52.992-10.784 15.008 1.136 25.376 5.552 29.472 8.064 5.456 3.68 10.672 8.928 13.536 15.728 3.728 6.944 5.024 14.064 4.192 20.736-0.464 4.704-3.456 15.744-11.792 27.904-11.968 17.728-27.76 27.056-41.392 35.264-10.704 6.08-20.096 12.064-25.648 20.352-5.888 8.912-7.296 16.048-2.672 19.312 2.672 1.776 7.664 4.832 7.968 11.12 0.16 5.552-3.616 8.608-6.304 10.912-1.552 1.168-3.072 2.832-4.608 4.624-1.664 2.928-5.568 9.104-4.256 15.104 0.784 3.568 2.688 6.816 6.88 9.232 11.024 7.328 20.768-2.416 23.456-6.704 1.408-1.68 2.256-4 2.672-6 1.312-3.456 2.784-8.064 7.968-9.664l3.584-0.832c4.032 0 6.912 2.208 10.64 4.624 3.504 2.416 9.744-2.192 15.776-10.384 5.728-8.288 7.232-19.312 9.28-31.792 2.832-15.312 5.408-33.04 17.104-50.88 8.448-12.368 17.36-19.536 21.44-21.504 5.312-2.944 11.488-4.32 18.048-4.32l2.624 0c7.712 0.736 14.528 3.056 20.272 6.944 3.808 3.04 11.648 11.008 18.144 24.672 9.008 18.992 9.488 37.024 9.76 53.296 0.192 12.176 0.32 23.072 4.72 32.416 6.016 11.968 11.152 12.608 12.928 12.608 0 0 0.736 0 2.736-0.832 3.136-1.584 8.688-3.472 13.216-1.376 5.136 2.512 5.568 7.664 6.4 11.232 0.32 1.68 0.736 3.776 1.68 5.856 1.776 3.584 10.176 16.16 22.56 10.4 11.632-5.984 9.536-16.256 5.872-24.24-0.96-1.888-2.416-3.456-3.888-5.36-1.984-2.512-5.664-5.76-4.72-11.328 1.456-5.76 6.512-8.288 10.384-10.592 4.064-1.584 3.568-8.928-0.944-18.672-3.888-9.232-12.48-15.744-22.464-23.92-12.368-10.272-26.544-21.312-35.872-40.4-6.592-13.744-7.904-24.976-7.904-29.472 0.208-6.72 2.512-13.488 6.864-19.888 4.176-6.4 9.744-11.232 16.352-13.84 3.792-1.792 12.384-3.792 23.392-3.792L607.664 525.44z" fill="#1296db" p-id="1670"></path></svg>