<?xml version="1.0" standalone="no"?><!DOCTYPE svg PUBLIC "-//W3C//DTD SVG 1.1//EN" "http://www.w3.org/Graphics/SVG/1.1/DTD/svg11.dtd"><svg t="1770801557319" class="icon" viewBox="0 0 1024 1024" version="1.1" xmlns="http://www.w3.org/2000/svg" p-id="4020" xmlns:xlink="http://www.w3.org/1999/xlink" width="200" height="200"><path d="M372.622 746.667c-105.244 0-192-86.756-192-192s86.756-192 192-192c36.978 0 72.534 9.955 103.822 29.866 12.8 8.534 17.067 25.6 8.534 39.823-8.534 12.8-25.6 17.066-39.822 8.533-21.334-14.222-46.934-21.333-72.534-21.333-73.955 0-135.11 61.155-135.11 135.11s61.155 135.112 135.11 135.112 135.111-61.156 135.111-135.111c0-15.645 12.8-28.445 28.445-28.445s28.444 12.8 28.444 28.445c0 105.244-86.755 192-192 192z" fill="#1296db" p-id="4021"></path><path d="M699.733 746.667c-39.822 0-78.222-11.378-109.51-34.134-12.8-8.533-15.645-27.022-7.112-39.822 8.533-12.8 27.022-15.644 39.822-7.111 22.756 15.644 49.778 24.178 76.8 24.178 73.956 0 135.111-61.156 135.111-135.111s-61.155-135.111-135.11-135.111-135.112 61.155-135.112 135.11c0 15.645-12.8 28.445-28.444 28.445s-28.445-12.8-28.445-28.444c0-105.245 86.756-192 192-192s192 85.333 192 192c0 105.244-86.755 192-192 192z" fill="#1296db" p-id="4022"></path></svg>