<?xml version="1.0" standalone="no"?><!DOCTYPE svg PUBLIC "-//W3C//DTD SVG 1.1//EN" "http://www.w3.org/Graphics/SVG/1.1/DTD/svg11.dtd"><svg t="1770804354920" class="icon" viewBox="0 0 1024 1024" version="1.1" xmlns="http://www.w3.org/2000/svg" p-id="8859" xmlns:xlink="http://www.w3.org/1999/xlink" width="200" height="200"><path d="M595.405734 247.770634L165.921807 451.947871l207.068636 90.300609v213.518679l222.415291 125.442224 182.380539-103.645525V569.383145l224.861859-117.435274-407.242398-204.177237z" fill="#9AC4E9" p-id="8860"></path><path d="M595.405734 892.330148a11.120765 11.120765 0 0 1-5.560382-1.334492l-222.415291-125.219809a11.120765 11.120765 0 0 1-5.560382-9.786273v-206.40139l-200.173762-87.409209a11.120765 11.120765 0 0 1 0-20.239792l429.483927-203.954822a11.120765 11.120765 0 0 1 9.786272 0l407.242398 203.954822a11.120765 11.120765 0 0 1 0 19.794961l-219.523892 114.32146V778.453519a11.120765 11.120765 0 0 1-5.560382 9.563857L600.521286 890.773241a11.120765 11.120765 0 0 1-5.115552 1.556907z m-211.294526-142.790617l211.294526 117.880104 171.259774-97.195482V569.383145a11.120765 11.120765 0 0 1 6.005213-9.786273L978.627281 452.170287 595.183319 260.225891l-402.571677 191.27715L378.105995 532.017376a11.120765 11.120765 0 0 1 6.672459 10.231104z" fill="#9AC4E9" p-id="8861"></path><path d="M780.232841 715.065161a11.120765 11.120765 0 0 1-11.120765-11.120765v-173.261512a11.120765 11.120765 0 0 1 6.450044-10.008688l154.133797-73.17463L489.31364 237.984361 47.152042 447.499566 489.31364 657.01477l193.501304-91.857515a11.120765 11.120765 0 0 1 9.563857 20.017376l-198.172024 94.081668a11.120765 11.120765 0 0 1-9.563858 0l-467.072111-222.415291a11.120765 11.120765 0 0 1 0-20.017376l467.072111-222.415291a11.120765 11.120765 0 0 1 9.563858 0l467.072111 222.415291a11.120765 11.120765 0 0 1 0 20.017376l-169.035621 80.29192v166.144222a11.120765 11.120765 0 0 1-12.010426 11.788011z" fill="#221714" p-id="8862"></path><path d="M489.31364 925.247611a11.120765 11.120765 0 0 1-5.560382-1.334492l-242.655083-136.340573a11.120765 11.120765 0 0 1-5.560382-9.786273v-151.687229a11.120765 11.120765 0 0 1 16.681147-9.786272L489.31364 749.539531l192.611642-109.428323a11.120765 11.120765 0 1 1 10.89835 19.35013l-198.839271 112.319722a11.120765 11.120765 0 0 1-10.898349 0L257.556907 645.004344v126.554301L489.31364 901.449175l192.611642-109.428324a11.120765 11.120765 0 0 1 10.89835 19.350131l-198.172025 112.542137a11.120765 11.120765 0 0 1-5.337967 1.334492z" fill="#221714" p-id="8863"></path></svg>