<?xml version="1.0" standalone="no"?><!DOCTYPE svg PUBLIC "-//W3C//DTD SVG 1.1//EN" "http://www.w3.org/Graphics/SVG/1.1/DTD/svg11.dtd"><svg t="1770804590456" class="icon" viewBox="0 0 1024 1024" version="1.1" xmlns="http://www.w3.org/2000/svg" p-id="20478" xmlns:xlink="http://www.w3.org/1999/xlink" width="200" height="200"><path d="M72.302911 114.838844L110.0013 77.040458c2.499893-2.499893 6.399727-2.999872 9.399599-1.099953L264.994678 166.236648c1.39994 0.899962 2.399897 2.09991 2.999872 3.599846l37.898381 93.795992c0.399983 0.899962 0.999957 1.799923 1.699927 2.499894l119.494895 119.59489c2.999872 2.999872 2.999872 7.799667 0 10.799539L391.58927 432.025292c-2.999872 2.999872-7.799667 2.999872-10.799539 0l-118.994916-118.994916c-0.69997-0.69997-1.39994-1.199949-2.299902-1.599932l-93.995984-41.698218c-1.39994-0.599974-2.499893-1.599932-3.299859-2.899876L71.302954 124.238442c-1.899919-2.999872-1.499936-6.899705 0.999957-9.399598z m880.0624 793.766086l-47.597967 47.597967c-26.698859 26.698859-70.296997 26.698859-96.89586 0L547.582605 695.814022c-2.999872-2.999872-2.999872-7.799667 0-10.799539l16.199308-16.199308c2.999872-2.999872 7.799667-2.999872 10.799538 0L806.971523 901.405238c7.399684 7.399684 19.499167 7.399684 26.89885 0 7.399684-7.399684 7.399684-19.499167 0-26.898851L601.380307 642.01632c-2.999872-2.999872-2.999872-7.799667 0-10.799538l28.198795-28.198796c2.999872-2.999872 7.799667-2.999872 10.799538 0l232.490067 232.490067c7.399684 7.399684 19.499167 7.399684 26.898851 0 7.399684-7.399684 7.399684-19.499167 0-26.898851L667.277491 576.119136c-2.999872-2.999872-2.999872-7.799667 0-10.799539l13.999402-13.999402c2.999872-2.999872 7.799667-2.999872 10.799539 0l260.288879 260.288879c26.698859 26.698859 26.698859 70.296997 0 96.995856z m65.397206-631.273029L875.968575 419.125843c-3.699842 3.699842-9.199607 5.199778-14.299389 3.799838l-97.195848-26.098885c-2.599889-0.69997-5.399769 0-7.399683 1.999914L401.288855 754.711505c-1.899919 1.899919-2.699885 4.699799-1.999914 7.299688l25.798898 96.395882c1.499936 5.599761-0.099996 11.599504-4.199821 15.699329L278.194115 1017.000299c-4.399812 4.399812-10.799539 6.099739-16.699287 4.499808l-81.896501-21.899065c-13.79941-3.699842-18.49921-20.999103-8.299645-31.198667l105.095509-105.095509c1.899919-1.899919 2.699885-4.699799 1.999915-7.399684l-13.699415-51.097817c-5.899748-22.099056-23.199009-39.298321-45.198069-45.198069l-51.097817-13.699415c-2.599889-0.69997-5.399769 0.099996-7.399683 1.999915l-105.295502 104.995514c-10.099568 10.099568-27.498825 5.499765-31.198667-8.399641l-21.99906-81.896501c-1.599932-5.999744 0.099996-12.39947 4.499808-16.699287l142.793899-142.793899c4.099825-4.099825 10.099568-5.699756 15.699329-4.199821l96.395882 25.798898c2.599889 0.69997 5.399769 0 7.399684-1.999914l355.784799-355.7848c1.899919-1.899919 2.699885-4.699799 1.999915-7.399683l-25.99889-97.195848c-1.39994-5.099782 0.099996-10.599547 3.799838-14.299389L746.674099 6.243483c5.399769-5.399769 13.199436-7.49968 20.59912-5.499765L846.969814 22.142804c13.899406 3.699842 18.49921 20.999103 8.399641 31.198667l-105.09551 104.995514c-1.899919 1.899919-2.699885 4.699799-1.999914 7.399684l13.699414 51.097817c5.899748 22.099056 23.199009 39.298321 45.198069 45.198069l51.097817 13.699414c2.599889 0.69997 5.399769 0 7.299688-1.999914l105.09551-105.09551c10.099568-10.099568 27.498825-5.499765 31.198667 8.299645l21.399086 79.696595c1.899919 7.49968-0.199991 15.399342-5.499765 20.699116z m0 0" fill="#1296db" p-id="20479"></path></svg>