<?xml version="1.0" standalone="no"?><!DOCTYPE svg PUBLIC "-//W3C//DTD SVG 1.1//EN" "http://www.w3.org/Graphics/SVG/1.1/DTD/svg11.dtd"><svg t="1770804419442" class="icon" viewBox="0 0 1024 1024" version="1.1" xmlns="http://www.w3.org/2000/svg" p-id="16497" xmlns:xlink="http://www.w3.org/1999/xlink" width="200" height="200"><path d="M833.1 972H190.9c-30.3 0-58.6-13.5-77.6-37.1C94 911 86.7 880 93.2 849.8c35-162 162.3-290.2 324.2-326.8 17-3.8 33.7 6.8 37.5 23.7 3.8 16.9-6.8 33.7-23.7 37.5C293 615.5 184.4 724.9 154.6 863.1c-2.5 11.6 0.3 23.4 7.6 32.5 7.2 8.9 17.4 13.7 28.8 13.7h642.2c11.4 0 21.6-4.9 28.8-13.7 7.3-9.1 10.1-20.9 7.6-32.5-30-138.2-138.6-247.6-276.9-278.8-16.9-3.8-27.5-20.6-23.7-37.5 3.8-16.9 20.6-27.5 37.5-23.7 162 36.5 289.3 164.8 324.2 326.8 6.5 30.2-0.8 61.2-20.1 85.1-18.9 23.5-47.2 37-77.5 37z" fill="#1296db" p-id="16498"></path><path d="M512 605.6c-127.1 0-230.5-103.4-230.5-230.5v-92.6C281.5 155.4 384.9 52 512 52s230.5 103.4 230.5 230.5v92.6c0 127.1-103.4 230.5-230.5 230.5z m0-490.9c-92.5 0-167.8 75.3-167.8 167.7V375c0 92.5 75.3 167.7 167.8 167.7 92.5 0 167.7-75.3 167.7-167.7v-92.6c0-92.4-75.2-167.7-167.7-167.7z" fill="#1296db" p-id="16499"></path><path d="M512 840.8c-6.4 0-12.1-3.9-14.5-9.8L389.3 564.4c-3.3-8 0.6-17.2 8.6-20.4 8-3.2 17.2 0.6 20.4 8.6L512 783.4l93.6-230.7c3.3-8 12.4-11.9 20.4-8.6 8 3.3 11.9 12.4 8.6 20.4L526.5 831c-2.4 5.9-8.1 9.8-14.5 9.8z" fill="#1296db" p-id="16500"></path></svg>